<svg xmlns="http://www.w3.org/2000/svg" xmlns:xlink="http://www.w3.org/1999/xlink" fill="none" version="1.1" width="158" height="32" viewBox="0 0 158 32"><defs><clipPath id="master_svg0_371_031774"><rect x="0" y="0" width="158" height="32" rx="0"/></clipPath></defs><g clip-path="url(#master_svg0_371_031774)"><g><g><g><g><g><g><g><g><g><path d="M85.82067713012695,5.539769252428412Q88.31637713012695,5.395934252428413,89.75467713012695,5.379022252428412C89.23857713012696,5.277504252428413,88.67177713012696,5.184428252428413,88.06257713012695,5.091377252428412C85.76137713012696,4.761416252428412,82.81727713012695,4.549910152428413,79.47547713012696,4.507619252428412C65.16917713012695,5.9458692524284125,56.404407130126955,9.423019252428412,52.49577713012695,11.351949252428412C66.31137713012696,7.1641492524284125,79.48397713012696,5.912019252428412,85.82067713012695,5.539769252428412Z" fill="#FFFFFF" fill-opacity="1"/></g><g><path d="M8.30794311088562,5.362111499533057L2.9864631108856203,5.362111499533057L1.7005031108856201,8.348571499533058L18.49410311088562,8.348571499533058Q21.58210311088562,8.280901499533057,22.44500311088562,9.812201499533057C21.02370311088562,6.5973014995330574,13.57020311088562,5.632819499533057,8.30794311088562,5.362111499533057Z" fill="#FFFFFF" fill-opacity="1"/></g><g><path d="M11.5821,10.277507176622748L5.01691,10.277507176622748L0,24.13540717662275L6.5736,24.13540717662275L11.5821,10.277507176622748Z" fill="#FFFFFF" fill-opacity="1"/></g><g><path d="M73.34179844873047,17.18950687907636C73.25719064873047,17.54484787907636,73.20643134873046,17.89169487907636,73.18952014873047,18.238566879076362C73.06262144873047,19.98984687907636,74.03554344873046,22.959366879076363,78.40948744873047,23.906936879076362C82.48732744873047,24.786806879076362,87.37734744873046,23.02706687907636,88.61254744873047,22.502536879076363L89.51774744873046,18.99998687907636Q86.22674744873046,21.43653687907636,82.46194744873047,22.11334687907636C77.98645744873046,22.91710687907636,72.96107744873046,21.681886879076362,73.34179844873047,17.18950687907636Z" fill="#FFFFFF" fill-opacity="1"/></g><g><path d="M90.71915690917969,11.487312932543158C89.78005690917969,10.29441893254316,87.96105690917969,9.482242932543159,85.42305690917969,9.482242932543159C85.15225690917968,9.482242932543159,84.87315690917968,9.490711432543158,84.58545690917968,9.507622632543159C81.30287690917969,9.72759693254316,79.1032169091797,10.489012932543158,76.92047690917968,12.08798293254316C74.80541690917968,13.64466293254316,73.73096590917969,15.446702932543158,73.34180200917969,17.189502932543157C72.96109390917968,21.68184293254316,77.99493690917969,22.917042932543158,82.46193690917968,22.11334293254316Q86.22675690917968,21.43654293254316,89.5177569091797,19.000012932543157C88.33335690917968,19.61764293254316,79.50930690917968,24.06764293254316,78.79019690917968,19.05923293254316C78.8663369091797,19.05077293254316,85.79525690917968,17.840962932543157,86.97125690917969,17.612542932543157C88.29955690917969,17.35028293254316,91.17595690917969,16.40273293254316,91.42975690917969,13.890042932543158C91.5228569091797,13.018612932543158,91.26905690917968,12.189502932543158,90.71915690917969,11.487312932543158ZM83.26565690917968,16.96956293254316Q78.91709690917969,17.83249293254316,78.79865690917968,17.82405293254316Q79.60237690917968,13.915422932543159,84.44165690917968,12.55331293254316C87.51265690917968,11.690352932543158,87.61425690917969,16.10659293254316,83.26565690917968,16.96956293254316Z" fill="#FFFFFF" fill-opacity="1"/></g></g></g></g></g><g><path d="M79.46697311401367,4.5076192530212404C79.06937311401367,4.49915075302124,78.67177311401367,4.49915075302124,78.26567311401368,4.49915075302124C70.29607311401367,4.49915075302124,60.372253114013674,5.43822475302124,51.649737114013675,7.883240753021241L50.85447311401367,11.85110075302124C51.39592811401367,11.68188075302124,51.93738311401367,11.51269075302124,52.478833114013675,11.35195075302124C56.404403114013675,9.423010753021241,65.16077311401367,5.9543107530212405,79.46697311401367,4.5076192530212404Z" fill="#FFFFFF" fill-opacity="1"/></g><g><path d="M28.98474620513916,10.302891508846283C28.98474620513916,9.634521508846284,28.86634620513916,9.042321508846284,28.64634620513916,8.517791508846283C27.79184620513916,6.411201508846283,25.33844620513916,5.362111508846283,22.16584620513916,5.362111508846283L8.30794620513916,5.362111508846283C13.570216205139161,5.632845508846283,21.03214620513916,6.597301508846283,22.44504620513916,9.812201508846282C22.588846205139163,10.057561508846284,22.67344620513916,10.345201508846284,22.67344620513916,10.683611508846283Q22.67344620513916,14.084611508846283,11.32825620513916,17.054211508846283L18.47714620513916,24.15231150884628L26.58204620513916,24.15231150884628Q23.12184620513916,20.176011508846283,18.68024620513916,17.054211508846283C24.28934620513916,16.868011508846283,28.98474620513916,14.287651508846283,28.98474620513916,10.302891508846283Z" fill="#FFFFFF" fill-opacity="1"/></g><g><path d="M72.9272462866211,10.099849743182373C71.3028762866211,10.260596043182373,69.6700462866211,10.446723043182374,68.02876628662109,10.658228043182373L64.8392562866211,24.177670043182374L69.89001628662109,24.177670043182374L73.2318062866211,10.074470043182373C73.13029628662109,10.074444224582374,73.03722628662109,10.091381243182372,72.9272462866211,10.099849743182373Z" fill="#FFFFFF" fill-opacity="1"/></g><g><path d="M59.289347426757814,11.92723774343872C58.13874742675781,17.113363743438722,57.08121742675781,21.292773743438723,56.116757426757815,24.43997374343872C55.66836742675781,25.861273743438723,55.14383742675781,26.859573743438723,54.54314742675781,27.46027374343872C53.824027426757816,28.17937374343872,52.64805742675781,28.73777374343872,50.998309426757814,29.11847374343872C50.98138542675781,29.13537374343872,50.972929426757815,29.14387374343872,50.95600542675781,29.16077374343872L50.32148742675781,31.86797374343872C51.92046742675781,31.741173743438722,56.13366742675781,31.16587374343872,58.705587426757816,28.66157374343872C60.09306742675781,27.31637374343872,60.99828742675781,25.32827374343872,61.46358742675781,23.678473743438722L64.57698742675781,11.13197374343872C62.76648742675781,11.377327743438721,60.99828742675781,11.64806174343872,59.289347426757814,11.92723774343872Z" fill="#FFFFFF" fill-opacity="1"/></g><g><path d="M50.55837926879883,13.458538341705323L47.98646926879883,24.17769634170532L53.045689268798824,24.17769634170532L55.795269268798826,12.510996341705322C53.90863926879883,12.832489341705323,52.14890926879883,13.153982341705323,50.55837926879883,13.458538341705323Z" fill="#FFFFFF" fill-opacity="1"/></g><g><path d="M42.791842794799805,9.634521007537842Q41.7681427947998,15.328271007537841,40.82914279479981,18.52624100753784C40.7106427947998,18.940781007537844,40.575242794799806,19.32150100753784,40.41454279479981,19.66842100753784C40.4060427947998,19.67682100753784,40.39764279479981,19.693721007537842,40.3891427947998,19.710621007537842C40.3384427947998,19.82062100753784,40.2791427947998,19.922221007537843,40.211542794799804,20.023721007537844C39.72084279479981,20.751221007537843,38.900142794799805,21.24192100753784,37.1911827947998,21.394221007537844C35.008442794799805,21.580421007537844,33.9593627947998,21.03042100753784,34.2893227947998,19.52454100753784L36.717412794799806,9.642989507537841L31.336702794799805,9.642989507537841L28.730945594799806,20.88662100753784C28.494059794799806,22.28262100753784,29.162412794799806,23.264021007537842,30.516052794799805,23.771621007537842C31.218252794799806,24.042321007537844,32.106582794799806,24.17772100753784,33.164112794799806,24.17772100753784C41.4636427947998,24.17772100753784,44.3401427947998,23.99152100753784,45.473742794799804,20.57362100753784Q46.06594279479981,18.771591007537843,48.0541427947998,9.642989507537841L42.791842794799805,9.642989507537841L42.791842794799805,9.634521007537842Z" fill="#FFFFFF" fill-opacity="1"/></g></g></g><g><path d="M101.81699755859376,23.78715075302124C106.12199755859375,23.78715075302124,108.89399755859375,21.70815075302124,108.89399755859375,18.558150753021238C108.89399755859375,14.02215075302124,101.73299755859375,15.177150753021241,101.75399755859375,13.16115075302124C101.75399755859375,12.363150753021241,102.67799755859374,11.73315075302124,104.39999755859375,11.73315075302124C105.84899755859375,11.73315075302124,107.27699755859375,12.11115075302124,108.43199755859375,12.846150753021242L109.94399755859375,9.75915075302124C108.62099755859376,8.940150753021241,106.73099755859374,8.49915075302124,104.65199755859375,8.49915075302124C100.30499755859375,8.49915075302124,97.59599755859375,10.57815075302124,97.59599755859375,13.74915075302124C97.59599755859375,18.369150753021238,104.73599755859375,17.27715075302124,104.73599755859375,19.251150753021243C104.73599755859375,20.04915075302124,103.81199755859375,20.553150753021242,102.21599755859376,20.553150753021242C100.53599755859375,20.553150753021242,98.81399755859375,20.04915075302124,97.32299755859376,19.10415075302124L95.68499755859375,22.21215075302124C97.00799755859374,23.11515075302124,99.29699755859374,23.78715075302124,101.81699755859376,23.78715075302124ZM126.36599755859375,8.79315175302124L119.68799755859375,17.29815075302124L116.24399755859375,8.79315175302124L112.86299755859375,8.79315175302124L109.92299755859375,23.49315075302124L113.74499755859375,23.49315075302124L115.29899755859375,15.744150753021241L117.96599755859376,22.044150753021242L119.79299755859375,22.044150753021242L124.68599755859375,15.744150753021241L123.17399755859375,23.49315075302124L127.01699755859374,23.49315075302124L129.91499755859374,8.79315175302124L126.36599755859375,8.79315175302124ZM139.11299755859375,8.79315175302124L132.89699755859374,8.79315175302124L129.95699755859374,23.49315075302124L134.11499755859376,23.49315075302124L134.87099755859376,19.65015075302124L137.81099755859375,19.65015075302124C142.24199755859377,19.65015075302124,145.07699755859375,17.23515075302124,145.07699755859375,13.51815075302124C145.07699755859375,10.53615075302124,142.93499755859375,8.79315175302124,139.11299755859375,8.79315175302124ZM137.99999755859375,16.37415075302124L135.52199755859374,16.37415075302124L136.38299755859376,12.06915075302124L138.56699755859376,12.06915075302124C140.01599755859377,12.06915075302124,140.87699755859376,12.63615075302124,140.87699755859376,13.875150753021241C140.87699755859376,15.49215075302124,139.82699755859375,16.37415075302124,137.99999755859375,16.37415075302124ZM157.29899755859375,14.61015075302124L153.74999755859375,14.61015075302124L154.44299755859376,11.145150753021241L151.20899755859375,11.145150753021241L150.51599755859377,14.61015075302124L146.96699755859373,14.61015075302124L146.35799755859375,17.67615075302124L149.90699755859376,17.67615075302124L149.21399755859375,21.14115075302124L152.44799755859376,21.14115075302124L153.14099755859377,17.67615075302124L156.68999755859375,17.67615075302124L157.29899755859375,14.61015075302124Z" fill="#FFFFFF" fill-opacity="1"/></g></g></g></g></svg>