<svg xmlns="http://www.w3.org/2000/svg" xmlns:xlink="http://www.w3.org/1999/xlink" fill="none" version="1.1" width="183.44894409179688" height="32" viewBox="0 0 183.44894409179688 32"><defs><linearGradient x1="1.0056312084197998" y1="0.5004573464393616" x2="-0.011625794693827629" y2="0.5004573464393616" id="master_svg0_3_673"><stop offset="0%" stop-color="#D71338" stop-opacity="1"/><stop offset="18.379999697208405%" stop-color="#D31437" stop-opacity="1"/><stop offset="41.29999876022339%" stop-color="#C61632" stop-opacity="1"/><stop offset="66.62999987602234%" stop-color="#B0192B" stop-opacity="1"/><stop offset="93.52999925613403%" stop-color="#921C23" stop-opacity="1"/><stop offset="100%" stop-color="#8A1C21" stop-opacity="1"/></linearGradient><linearGradient x1="-0.04395187646150589" y1="0.5007033944129944" x2="0.9937479496002197" y2="0.5007033944129944" id="master_svg1_3_670"><stop offset="0%" stop-color="#D71338" stop-opacity="1"/><stop offset="18.379999697208405%" stop-color="#D31437" stop-opacity="1"/><stop offset="41.29999876022339%" stop-color="#C61632" stop-opacity="1"/><stop offset="66.62999987602234%" stop-color="#B0192B" stop-opacity="1"/><stop offset="93.52999925613403%" stop-color="#921C23" stop-opacity="1"/><stop offset="100%" stop-color="#8A1C21" stop-opacity="1"/></linearGradient><linearGradient x1="0.4999050498008728" y1="1.5891697406768799" x2="0.4999050498008728" y2="-0.3876190483570099" id="master_svg2_3_667"><stop offset="0%" stop-color="#D71338" stop-opacity="1"/><stop offset="28.42000126838684%" stop-color="#D41336" stop-opacity="1"/><stop offset="61.90999746322632%" stop-color="#CB1632" stop-opacity="1"/><stop offset="97.85000085830688%" stop-color="#BC1A2C" stop-opacity="1"/><stop offset="100%" stop-color="#BB1A2B" stop-opacity="1"/></linearGradient><linearGradient x1="0.4996660351753235" y1="2.171058416366577" x2="0.4996660351753235" y2="-1.7647833824157715" id="master_svg3_3_664"><stop offset="0%" stop-color="#D71338" stop-opacity="1"/><stop offset="28.42000126838684%" stop-color="#D41336" stop-opacity="1"/><stop offset="61.90999746322632%" stop-color="#CB1632" stop-opacity="1"/><stop offset="97.85000085830688%" stop-color="#BC1A2C" stop-opacity="1"/><stop offset="100%" stop-color="#BB1A2B" stop-opacity="1"/></linearGradient><linearGradient x1="0.500045895576477" y1="-0.36602240800857544" x2="0.500045895576477" y2="0.9457783102989197" id="master_svg4_3_504"><stop offset="0%" stop-color="#D71338" stop-opacity="1"/><stop offset="22.450000047683716%" stop-color="#D41436" stop-opacity="1"/><stop offset="50.440001487731934%" stop-color="#CA1732" stop-opacity="1"/><stop offset="81.23999834060669%" stop-color="#B91C2B" stop-opacity="1"/><stop offset="100%" stop-color="#AC1E26" stop-opacity="1"/></linearGradient><linearGradient x1="0.0044736843556165695" y1="0.5004372596740723" x2="1.318577766418457" y2="0.5004372596740723" id="master_svg5_3_654"><stop offset="0%" stop-color="#D71338" stop-opacity="1"/><stop offset="28.42000126838684%" stop-color="#D41336" stop-opacity="1"/><stop offset="61.90999746322632%" stop-color="#CB1632" stop-opacity="1"/><stop offset="97.85000085830688%" stop-color="#BC1A2C" stop-opacity="1"/><stop offset="100%" stop-color="#BB1A2B" stop-opacity="1"/></linearGradient><linearGradient x1="0.4998813569545746" y1="1.433466911315918" x2="0.4998813569545746" y2="-0.0242998655885458" id="master_svg6_3_679"><stop offset="0%" stop-color="#D71338" stop-opacity="1"/><stop offset="28.42000126838684%" stop-color="#D41336" stop-opacity="1"/><stop offset="61.90999746322632%" stop-color="#CB1632" stop-opacity="1"/><stop offset="97.85000085830688%" stop-color="#BC1A2C" stop-opacity="1"/><stop offset="100%" stop-color="#BB1A2B" stop-opacity="1"/></linearGradient><linearGradient x1="0.5008770227432251" y1="1.5760468244552612" x2="0.5008770227432251" y2="-0.36660468578338623" id="master_svg7_3_657"><stop offset="0%" stop-color="#D71338" stop-opacity="1"/><stop offset="28.42000126838684%" stop-color="#D41336" stop-opacity="1"/><stop offset="61.90999746322632%" stop-color="#CB1632" stop-opacity="1"/><stop offset="97.85000085830688%" stop-color="#BC1A2C" stop-opacity="1"/><stop offset="100%" stop-color="#BB1A2B" stop-opacity="1"/></linearGradient><linearGradient x1="0.49950742721557617" y1="1.0208323001861572" x2="0.49950742721557617" y2="-0.3002937436103821" id="master_svg8_3_651"><stop offset="0%" stop-color="#D71338" stop-opacity="1"/><stop offset="28.42000126838684%" stop-color="#D41336" stop-opacity="1"/><stop offset="61.90999746322632%" stop-color="#CB1632" stop-opacity="1"/><stop offset="97.85000085830688%" stop-color="#BC1A2C" stop-opacity="1"/><stop offset="100%" stop-color="#BB1A2B" stop-opacity="1"/></linearGradient><linearGradient x1="0.49892741441726685" y1="1.6963306665420532" x2="0.49892741441726685" y2="-0.6519579291343689" id="master_svg9_3_648"><stop offset="0%" stop-color="#D71338" stop-opacity="1"/><stop offset="28.42000126838684%" stop-color="#D41336" stop-opacity="1"/><stop offset="61.90999746322632%" stop-color="#CB1632" stop-opacity="1"/><stop offset="97.85000085830688%" stop-color="#BC1A2C" stop-opacity="1"/><stop offset="100%" stop-color="#BB1A2B" stop-opacity="1"/></linearGradient><linearGradient x1="0.4998198449611664" y1="1.5585922002792358" x2="0.4998198449611664" y2="-0.3250959813594818" id="master_svga_3_676"><stop offset="0%" stop-color="#D71338" stop-opacity="1"/><stop offset="28.42000126838684%" stop-color="#D41336" stop-opacity="1"/><stop offset="61.90999746322632%" stop-color="#CB1632" stop-opacity="1"/><stop offset="97.85000085830688%" stop-color="#BC1A2C" stop-opacity="1"/><stop offset="100%" stop-color="#BB1A2B" stop-opacity="1"/></linearGradient></defs><g><g><g><g><g><path d="M100.34247355346679,1.2166918080329328C103.2605735534668,1.0485318080329327,104.9421735534668,1.0287518080329328,104.9421735534668,1.0287518080329328C104.3387735534668,0.9100468080329327,103.67607355346681,0.8012368080329326,102.9638735534668,0.6924268080329327C100.2732735534668,0.3066458080329327,96.8308735534668,0.05935090803293266,92.9236735534668,0.009891808032932659C76.19657355346679,1.6915018080329327,65.9486935534668,5.757031808032933,61.3786735534668,8.012361808032933C77.5319735534668,3.1159218080329327,92.9335735534668,1.6519318080329326,100.34247355346679,1.2166918080329328Z" fill="url(#master_svg0_3_673)" fill-opacity="1"/></g><g><path d="M9.713753593444824,1.008964478969574L3.491803593444824,1.008964478969574L1.9882535934448242,4.500774478969574L21.623453593444825,4.500774478969574C21.623453593444825,4.500774478969574,25.233953593444824,4.421634478969574,26.242953593444824,6.212054478969574C24.581153593444824,2.453164478969574,15.866453593444824,1.325502478969574,9.713753593444824,1.008964478969574Z" fill="url(#master_svg1_3_670)" fill-opacity="1"/></g><g><path d="M13.5419,6.7561052441596985L5.86584,6.7561052441596985L0,22.9589052441597L7.68593,22.9589052441597L13.5419,6.7561052441596985Z" fill="url(#master_svg2_3_667)" fill-opacity="1"/></g><g><path d="M85.75208639599609,14.837712585926056C85.65316839599609,15.253168585926057,85.59381749599609,15.658732585926057,85.5740338959961,16.064292585926054C85.4256563959961,18.111902585926057,86.56321839599609,21.583922585926054,91.6772783959961,22.691812585926055C96.44516839599609,23.720552585926058,102.16256839599609,21.663062585926056,103.6067683959961,21.049772585926057L104.6652683959961,16.954562585926055C104.6652683959961,16.954562585926055,100.8172683959961,19.803402585926058,96.4154683959961,20.594742585926056C91.1826883959961,21.534462585926057,85.3069553959961,20.090262585926055,85.75208639599609,14.837712585926056Z" fill="url(#master_svg3_3_664)" fill-opacity="1"/></g><g><path d="M99.87770118408203,5.826275646686554C102.84520118408203,5.826275646686554,104.97200118408203,6.775889646686554,106.07000118408203,8.170635646686554C106.71290118408203,8.991655646686553,107.00970118408203,9.961055646686553,106.90090118408203,10.979905646686554C106.60410118408203,13.917775646686554,103.24090118408203,15.025655646686554,101.68790118408204,15.332305646686555C100.31290118408204,15.599385646686555,92.21155118408203,17.013875646686554,92.12253118408204,17.023775646686552C92.96333118408204,22.879775646686554,103.28050118408203,17.676675646686554,104.66530118408204,16.954575646686553C104.66530118408204,16.954575646686553,100.81740118408203,19.803375646686554,96.41560118408204,20.594775646686553C91.19270118408203,21.534475646686552,85.30707218408203,20.090275646686553,85.75220328408203,14.837715646686554C86.20722618408203,12.800005646686554,87.46348118408203,10.693045646686553,89.93644118408203,8.872955646686554C92.48852118408203,7.003405646686554,95.06039118408204,6.113137646686554,98.89840118408203,5.855951046686554Q99.40290118408203,5.826275646686554,99.87770118408203,5.826275646686554ZM92.13241118408203,15.579605646686554C92.13241118408203,15.579605646686554,92.27089118408203,15.589495646686554,97.35530118408204,14.580525646686555C102.43970118408203,13.571565646686555,102.32100118408204,8.408045646686555,98.73020118408203,9.417005646686555C93.07213118408202,11.009585646686553,92.13241118408203,15.579605646686554,92.13241118408203,15.579605646686554Z" fill-rule="evenodd" fill="url(#master_svg4_3_504)" fill-opacity="1"/></g></g><g><path d="M92.91375957641601,0.00989181C92.44885957641601,0,91.98395957641601,0,91.50915957641601,0C82.19105957641602,0,70.58795957641601,1.09799,60.38948957641602,3.95672L59.459659576416016,8.59598L59.459659576416016,8.59598C60.09273557641602,8.39815,60.72580957641602,8.20031,61.35888957641602,8.01237C65.94868957641602,5.75703,76.18665957641602,1.70139,92.91375957641601,0.00989181Z" fill="url(#master_svg5_3_654)" fill-opacity="1"/></g><g><path d="M33.88935560760498,6.785784419364929C33.88935560760498,6.004324419364929,33.750855607604976,5.31190441936493,33.49365560760498,4.698604419364929C32.49455560760498,2.2355444193649294,29.62595560760498,1.0089644193649292,25.91655560760498,1.0089644193649292L9.71375560760498,1.0089644193649292C15.86646560760498,1.3255024193649292,24.59105560760498,2.453164419364929,26.24295560760498,6.21205441936493C26.41115560760498,6.4989144193649295,26.51005560760498,6.835244419364929,26.51005560760498,7.230914419364929C26.51005560760498,11.207464419364928,13.24513560760498,14.67946441936493,13.24513560760498,14.67946441936493L21.60375560760498,22.97866441936493L31.08005560760498,22.97866441936493C27.03435560760498,18.329564419364928,21.841155607604982,14.67946441936493,21.841155607604982,14.67946441936493C28.39935560760498,14.461864419364929,33.88935560760498,11.44486441936493,33.88935560760498,6.785784419364929Z" fill="url(#master_svg6_3_679)" fill-opacity="1"/></g><g><path d="M85.26739916259766,6.548377430181885C83.36816916259765,6.736322030181885,81.45904916259765,6.953942030181885,79.54003916259765,7.201237030181884L75.81082916259766,23.008302030181884L81.71623916259766,23.008302030181884L85.62349916259765,6.518702030181885C85.50479916259766,6.518702030181885,85.39598916259766,6.538485630181885,85.26739916259766,6.548377430181885Z" fill="url(#master_svg7_3_657)" fill-opacity="1"/></g><g><path d="M69.32178681640625,8.685007021026612C67.97651681640625,14.748687021026612,66.74004681640625,19.63527702102661,65.61237681640625,23.31497702102661C65.08810681640625,24.97677702102661,64.47481681640625,26.14407702102661,63.772496816406246,26.846377021026612C62.93169681640625,27.68717702102661,61.55673681640625,28.340077021026612,59.62783181640625,28.785177021026612C59.60804781640625,28.804977021026613,59.59815581640625,28.81487702102661,59.57837281640625,28.83457702102661L58.83648681640625,31.999977021026613C60.70603681640625,31.85157702102661,65.63215681640625,31.17897702102661,68.63926681640625,28.25097702102661C70.26148681640625,26.67817702102661,71.31998681640624,24.353677021026613,71.86398681640625,22.42467702102661L75.50418681640625,7.755177021026611L75.50418681640625,7.755177021026611C73.38738681640625,8.04203902102661,71.31998681640624,8.358577021026612,69.32178681640625,8.685007021026612Z" fill="url(#master_svg8_3_651)" fill-opacity="1"/></g><g><path d="M59.113452315673825,10.475422266845703L56.10634231567383,23.008342266845702L62.02164231567383,23.008342266845702L65.23648231567383,9.367542266845703C63.03060231567383,9.743431266845704,60.97311231567383,10.119319266845704,59.113452315673825,10.475422266845703Z" fill="url(#master_svg9_3_648)" fill-opacity="1"/></g><g><path d="M50.03273580322266,6.004327774047852C50.03273580322266,6.004327774047852,48.83583580322266,12.661517774047852,47.73783580322266,16.40062777404785C47.599435803222654,16.885327774047852,47.44113580322266,17.330427774047852,47.253135803222655,17.73602777404785L47.253135803222655,17.73602777404785C47.24323580322266,17.74592777404785,47.233435803222655,17.765727774047853,47.22353580322266,17.785427774047854C47.164135803222656,17.914027774047852,47.094935803222654,18.03272777404785,47.015735803222654,18.151427774047853C46.44203580322266,19.00212777404785,45.48253580322266,19.57592777404785,43.484395803222654,19.753927774047852C40.932305803222654,19.97152777404785,39.705725803222656,19.328627774047852,40.09150580322266,17.56782777404785L42.93045580322266,6.014219584047852L36.639265803222656,6.014219584047852L33.59258480322266,19.160427774047854C33.315613803222654,20.79262777404785,34.09706680322266,21.940027774047852,35.679755803222655,22.53352777404785C36.50077580322266,22.850027774047852,37.53941580322265,23.008327774047853,38.77589580322265,23.008327774047853C48.47973580322265,23.008327774047853,51.84293580322266,22.790727774047852,53.16843580322266,18.794427774047854C53.86093580322266,16.68752777404785,56.18543580322266,6.014219584047852,56.18543580322266,6.014219584047852L50.03273580322266,6.014219584047852L50.03273580322266,6.004327774047852Z" fill="url(#master_svga_3_676)" fill-opacity="1"/></g></g></g><g><path d="M113.66213989257812,23.181462797546388L122.34430989257812,6.314562797546387L127.33243989257812,6.314562797546387L128.88533989257812,23.181462797546388L125.02663989257812,23.181462797546388L124.83833989257812,19.567162797546388L119.52083989257812,19.567162797546388L117.80322989257813,23.181462797546388L113.66213989257812,23.181462797546388ZM121.05022989257813,16.283522797546386L124.67363989257812,16.283522797546386L124.43843989257813,11.700632797546387Q124.39133989257813,11.086432797546387,124.36783989257813,10.448612797546387Q124.34423989257813,9.810782797546388,124.36783989257813,9.172962797546386L124.29723989257812,9.172962797546386Q124.10893989257812,9.763542797546387,123.86193989257812,10.342302797546386Q123.61487989257813,10.921072797546387,123.30899989257813,11.558892797546386L121.05022989257813,16.283522797546386ZM136.48523989257814,23.417662797546388Q134.13233989257813,23.417662797546388,132.75583989257814,22.118462797546385Q131.37943989257812,20.819162797546387,131.37943989257812,18.338762797546387Q131.37943989257812,16.732362797546386,131.83823989257812,15.232292797546387Q132.2970398925781,13.732222797546386,133.20293989257812,12.551062797546386Q134.10873989257811,11.369912797546387,135.48523989257814,10.673032797546387Q136.86163989257813,9.976142797546387,138.67343989257813,9.976142797546387Q140.83803989257814,9.976142797546387,142.00273989257812,10.968322797546387Q143.16743989257813,11.960492797546387,143.16743989257813,13.543232797546388Q143.16743989257813,15.645692797546387,141.40273989257813,16.909562797546386Q139.63803989257812,18.17336279754639,135.94403989257813,18.17336279754639L135.33223989257812,18.17336279754639Q135.30873989257813,18.267862797546385,135.30873989257813,18.350562797546388Q135.30873989257813,18.433262797546387,135.30873989257813,18.527762797546387Q135.30873989257813,19.472662797546384,135.84993989257813,19.992362797546384Q136.3911398925781,20.512062797546385,137.40283989257813,20.512062797546385Q138.41453989257812,20.512062797546385,139.26163989257813,20.252162797546386Q140.10863989257814,19.992362797546384,141.19093989257811,19.472662797546384L141.19093989257811,22.331062797546387Q140.15573989257814,22.850762797546388,139.08513989257813,23.134262797546388Q138.0145398925781,23.417662797546388,136.48523989257814,23.417662797546388ZM136.15583989257811,15.622072797546387Q137.92043989257812,15.622072797546387,138.67343989257813,15.031492797546386Q139.4263398925781,14.440922797546387,139.4263398925781,13.708602797546387Q139.4263398925781,12.716432797546386,138.3440398925781,12.716432797546386Q137.75573989257813,12.716432797546386,137.21463989257813,13.118022797546388Q136.67343989257813,13.519612797546387,136.27343989257812,14.181062797546387Q135.87343989257812,14.842512797546387,135.73223989257812,15.622072797546387L136.15583989257811,15.622072797546387ZM148.20263989257813,28.851062797546387Q146.76733989257812,28.851062797546387,145.81443989257812,28.638462797546385Q144.86153989257812,28.425762797546387,144.01443989257814,28.07146279754639L144.01443989257814,24.740562797546385Q144.90853989257812,25.236662797546387,145.9203398925781,25.484762797546388Q146.93203989257813,25.732762797546386,148.03793989257812,25.732762797546386Q150.29673989257813,25.732762797546386,150.86133989257812,23.653962797546388L150.95553989257812,23.228762797546388Q151.0496398925781,22.874362797546386,151.17903989257812,22.425562797546387Q151.30843989257812,21.97666279754639,151.40253989257812,21.669562797546387L151.30843989257812,21.669562797546387Q150.76723989257812,22.354662797546386,150.03783989257812,22.862562797546385Q149.30843989257812,23.370462797546388,148.15553989257813,23.370462797546388Q147.21443989257813,23.370462797546388,146.42613989257814,22.886162797546387Q145.63793989257812,22.401862797546386,145.17913989257812,21.362462797546385Q144.72033989257812,20.323062797546385,144.72033989257812,18.622162797546387Q144.72033989257812,17.204862797546387,145.10853989257814,15.692942797546387Q145.49673989257812,14.181062797546387,146.23793989257814,12.881792797546387Q146.97913989257813,11.582522797546387,148.0614398925781,10.779332797546386Q149.14373989257814,9.976142797546387,150.53193989257812,9.976142797546387Q151.7319398925781,9.976142797546387,152.4142398925781,10.448612797546387Q153.09663989257814,10.921072797546387,153.6848398925781,11.842372797546385L153.77893989257814,11.842372797546385L154.4142398925781,10.212382797546386L157.49653989257814,10.212382797546386L154.67303989257812,23.488562797546386Q154.24953989257813,25.520162797546387,153.32013989257814,26.689462797546387Q152.39073989257813,27.858862797546387,151.09663989257814,28.35496279754639Q149.80253989257812,28.851062797546387,148.20263989257813,28.851062797546387ZM150.01433989257814,20.252162797546386Q150.64963989257814,20.252162797546386,151.14373989257814,19.744262797546387Q151.63783989257814,19.236362797546384,151.97903989257813,18.433262797546387Q152.32013989257814,17.630062797546387,152.49663989257812,16.720562797546386Q152.67313989257812,15.811052797546386,152.67313989257812,15.007872797546387Q152.67313989257812,14.157442797546388,152.34373989257813,13.649542797546387Q152.01433989257814,13.141642797546385,151.40253989257812,13.141642797546385Q150.83783989257813,13.141642797546385,150.34373989257813,13.602292797546387Q149.84963989257812,14.062942797546388,149.48493989257813,14.830692797546387Q149.12023989257813,15.598452797546386,148.90843989257812,16.519762797546385Q148.69673989257814,17.441062797546387,148.69673989257814,18.385962797546387Q148.69673989257814,20.252162797546386,150.01433989257814,20.252162797546386ZM157.99063989257812,28.851062797546387Q157.35533989257812,28.851062797546387,156.94363989257812,28.791962797546386Q156.53183989257812,28.732862797546385,156.27303989257814,28.638462797546385L156.27303989257814,25.520162797546387Q156.53183989257812,25.567362797546387,156.84943989257812,25.614662797546387Q157.16713989257812,25.661862797546387,157.56713989257813,25.661862797546387Q158.62593989257812,25.661862797546387,159.29653989257812,25.118562797546385Q159.96703989257813,24.575262797546387,160.48473989257812,23.630362797546386L160.7670398925781,23.110562797546386L158.88473989257812,10.212382797546386L162.79053989257812,10.212382797546386L163.33173989257813,16.189022797546386Q163.40233989257814,16.897762797546385,163.41403989257813,17.65366279754639Q163.42583989257813,18.409562797546386,163.42583989257813,19.023762797546386L163.51993989257812,19.023762797546386Q163.70813989257812,18.456862797546385,163.96703989257813,17.736362797546384Q164.2258398925781,17.015862797546387,164.55523989257813,16.307142797546387L167.3551398925781,10.212382797546386L171.56683989257812,10.212382797546386L163.82583989257813,24.929562797546385Q162.7670398925781,26.937562797546388,161.35523989257814,27.894262797546386Q159.94353989257812,28.851062797546387,157.99063989257812,28.851062797546387ZM169.47273989257812,28.851062797546387L173.40213989257813,10.212382797546386L176.46083989257812,10.212382797546386L176.29613989257814,11.936862797546386L176.3902398925781,11.936862797546386Q176.95493989257812,11.110052797546388,177.77843989257812,10.543102797546386Q178.60193989257812,9.976142797546387,179.73133989257812,9.976142797546387Q181.2842398925781,9.976142797546387,182.36663989257812,11.133682797546387Q183.44893989257812,12.291212797546386,183.44893989257812,14.724392797546386Q183.44893989257812,16.307142797546387,183.03723989257813,17.854462797546386Q182.62543989257813,19.401762797546386,181.84893989257813,20.665562797546386Q181.0725398925781,21.929462797546385,179.99013989257813,22.67356279754639Q178.90783989257812,23.417662797546388,177.54313989257813,23.417662797546388Q176.50793989257812,23.417662797546388,175.86083989257813,22.909762797546385Q175.2138398925781,22.401862797546386,174.74323989257812,21.622362797546387L174.64913989257812,21.622362797546387Q174.57853989257814,22.567262797546388,174.46083989257812,23.405862797546387Q174.34323989257814,24.244462797546387,174.10793989257812,25.425662797546387L173.37853989257812,28.851062797546387L169.47273989257812,28.851062797546387ZM176.81383989257813,20.252162797546386Q177.37843989257811,20.252162797546386,177.86083989257813,19.791562797546387Q178.3431398925781,19.330862797546388,178.69613989257812,18.563162797546386Q179.04903989257812,17.79536279754639,179.26083989257813,16.862262797546386Q179.47253989257814,15.929172797546387,179.47253989257814,15.007872797546387Q179.47253989257814,13.141642797546385,178.2020398925781,13.141642797546385Q177.51963989257814,13.141642797546385,177.00203989257813,13.673162797546386Q176.4844398925781,14.204682797546386,176.1549398925781,15.031492797546386Q175.82553989257812,15.858302797546386,175.6608398925781,16.75596279754639Q175.49613989257813,17.65366279754639,175.49613989257813,18.385962797546387Q175.49613989257813,19.236362797546384,175.84913989257814,19.744262797546387Q176.2020398925781,20.252162797546386,176.81383989257813,20.252162797546386Z" fill="#737373" fill-opacity="1"/></g></g></svg>