<svg xmlns="http://www.w3.org/2000/svg" xmlns:xlink="http://www.w3.org/1999/xlink" fill="none" version="1.1" width="158" height="32" viewBox="0 0 158 32"><defs><clipPath id="master_svg0_554_49723"><rect x="0" y="0" width="158" height="32" rx="0"/></clipPath><clipPath id="master_svg1_554_49576"><rect x="0" y="2" width="158" height="27.078689575195312" rx="0"/></clipPath><linearGradient x1="1.0056312084197998" y1="0.5004573464393616" x2="-0.011625794693827629" y2="0.5004573464393616" id="master_svg2_554_49637"><stop offset="0%" stop-color="#D71338" stop-opacity="1"/><stop offset="18.379999697208405%" stop-color="#D31437" stop-opacity="1"/><stop offset="41.29999876022339%" stop-color="#C61632" stop-opacity="1"/><stop offset="66.62999987602234%" stop-color="#B0192B" stop-opacity="1"/><stop offset="93.52999925613403%" stop-color="#921C23" stop-opacity="1"/><stop offset="100%" stop-color="#8A1C21" stop-opacity="1"/></linearGradient><linearGradient x1="-0.04395187646150589" y1="0.5007033944129944" x2="0.9937479496002197" y2="0.5007033944129944" id="master_svg3_554_49638"><stop offset="0%" stop-color="#D71338" stop-opacity="1"/><stop offset="18.379999697208405%" stop-color="#D31437" stop-opacity="1"/><stop offset="41.29999876022339%" stop-color="#C61632" stop-opacity="1"/><stop offset="66.62999987602234%" stop-color="#B0192B" stop-opacity="1"/><stop offset="93.52999925613403%" stop-color="#921C23" stop-opacity="1"/><stop offset="100%" stop-color="#8A1C21" stop-opacity="1"/></linearGradient><linearGradient x1="0.4999050498008728" y1="1.5891697406768799" x2="0.4999050498008728" y2="-0.3876190483570099" id="master_svg4_554_49639"><stop offset="0%" stop-color="#D71338" stop-opacity="1"/><stop offset="28.42000126838684%" stop-color="#D41336" stop-opacity="1"/><stop offset="61.90999746322632%" stop-color="#CB1632" stop-opacity="1"/><stop offset="97.85000085830688%" stop-color="#BC1A2C" stop-opacity="1"/><stop offset="100%" stop-color="#BB1A2B" stop-opacity="1"/></linearGradient><linearGradient x1="0.4996660351753235" y1="2.171058416366577" x2="0.4996660351753235" y2="-1.7647833824157715" id="master_svg5_554_49640"><stop offset="0%" stop-color="#D71338" stop-opacity="1"/><stop offset="28.42000126838684%" stop-color="#D41336" stop-opacity="1"/><stop offset="61.90999746322632%" stop-color="#CB1632" stop-opacity="1"/><stop offset="97.85000085830688%" stop-color="#BC1A2C" stop-opacity="1"/><stop offset="100%" stop-color="#BB1A2B" stop-opacity="1"/></linearGradient><linearGradient x1="0.500045895576477" y1="-0.36602240800857544" x2="0.500045895576477" y2="0.9457783102989197" id="master_svg6_554_49641"><stop offset="0%" stop-color="#D71338" stop-opacity="1"/><stop offset="22.450000047683716%" stop-color="#D41436" stop-opacity="1"/><stop offset="50.440001487731934%" stop-color="#CA1732" stop-opacity="1"/><stop offset="81.23999834060669%" stop-color="#B91C2B" stop-opacity="1"/><stop offset="100%" stop-color="#AC1E26" stop-opacity="1"/></linearGradient><linearGradient x1="0.0044736843556165695" y1="0.5004372596740723" x2="1.318577766418457" y2="0.5004372596740723" id="master_svg7_554_49642"><stop offset="0%" stop-color="#D71338" stop-opacity="1"/><stop offset="28.42000126838684%" stop-color="#D41336" stop-opacity="1"/><stop offset="61.90999746322632%" stop-color="#CB1632" stop-opacity="1"/><stop offset="97.85000085830688%" stop-color="#BC1A2C" stop-opacity="1"/><stop offset="100%" stop-color="#BB1A2B" stop-opacity="1"/></linearGradient><linearGradient x1="0.4998813569545746" y1="1.433466911315918" x2="0.4998813569545746" y2="-0.0242998655885458" id="master_svg8_554_49643"><stop offset="0%" stop-color="#D71338" stop-opacity="1"/><stop offset="28.42000126838684%" stop-color="#D41336" stop-opacity="1"/><stop offset="61.90999746322632%" stop-color="#CB1632" stop-opacity="1"/><stop offset="97.85000085830688%" stop-color="#BC1A2C" stop-opacity="1"/><stop offset="100%" stop-color="#BB1A2B" stop-opacity="1"/></linearGradient><linearGradient x1="0.5008770227432251" y1="1.5760468244552612" x2="0.5008770227432251" y2="-0.36660468578338623" id="master_svg9_554_49644"><stop offset="0%" stop-color="#D71338" stop-opacity="1"/><stop offset="28.42000126838684%" stop-color="#D41336" stop-opacity="1"/><stop offset="61.90999746322632%" stop-color="#CB1632" stop-opacity="1"/><stop offset="97.85000085830688%" stop-color="#BC1A2C" stop-opacity="1"/><stop offset="100%" stop-color="#BB1A2B" stop-opacity="1"/></linearGradient><linearGradient x1="0.49950742721557617" y1="1.0208323001861572" x2="0.49950742721557617" y2="-0.3002937436103821" id="master_svga_554_49645"><stop offset="0%" stop-color="#D71338" stop-opacity="1"/><stop offset="28.42000126838684%" stop-color="#D41336" stop-opacity="1"/><stop offset="61.90999746322632%" stop-color="#CB1632" stop-opacity="1"/><stop offset="97.85000085830688%" stop-color="#BC1A2C" stop-opacity="1"/><stop offset="100%" stop-color="#BB1A2B" stop-opacity="1"/></linearGradient><linearGradient x1="0.49892741441726685" y1="1.6963306665420532" x2="0.49892741441726685" y2="-0.6519579291343689" id="master_svgb_554_49646"><stop offset="0%" stop-color="#D71338" stop-opacity="1"/><stop offset="28.42000126838684%" stop-color="#D41336" stop-opacity="1"/><stop offset="61.90999746322632%" stop-color="#CB1632" stop-opacity="1"/><stop offset="97.85000085830688%" stop-color="#BC1A2C" stop-opacity="1"/><stop offset="100%" stop-color="#BB1A2B" stop-opacity="1"/></linearGradient><linearGradient x1="0.4998198449611664" y1="1.5585922002792358" x2="0.4998198449611664" y2="-0.3250959813594818" id="master_svgc_554_49647"><stop offset="0%" stop-color="#D71338" stop-opacity="1"/><stop offset="28.42000126838684%" stop-color="#D41336" stop-opacity="1"/><stop offset="61.90999746322632%" stop-color="#CB1632" stop-opacity="1"/><stop offset="97.85000085830688%" stop-color="#BC1A2C" stop-opacity="1"/><stop offset="100%" stop-color="#BB1A2B" stop-opacity="1"/></linearGradient></defs><g clip-path="url(#master_svg0_554_49723)"><g clip-path="url(#master_svg1_554_49576)"><g><g><g><g><g><g><g><path d="M84.91022070312499,3.0295478851413726Q87.379520703125,2.8872438851413724,88.802520703125,2.8705028851413728C88.29202070312499,2.770056885141373,87.731120703125,2.6779808851413724,87.12852070312499,2.585904885141373C84.85162070312501,2.259453885141373,81.938720703125,2.050190585141373,78.632320703125,2.0083378851413727C64.477720703125,3.4313278851413727,55.805900703125,6.871627885141373,51.938720703125,8.780107885141373C65.607820703125,4.636687885141373,78.640720703125,3.3978478851413727,84.91022070312499,3.0295478851413726Z" fill="url(#master_svg2_554_49637)" fill-opacity="1"/></g></g><g><g><path d="M8.220130701904296,2.8538216650485992L2.9550707019042965,2.8538216650485992L1.6827507019042969,5.8086216650486L18.298250701904298,5.8086216650486Q21.353550701904297,5.741651665048599,22.207250701904297,7.256721665048599C20.8010507019043,4.075921665048599,13.426650701904297,3.1216786650485995,8.220130701904296,2.8538216650485992Z" fill="url(#master_svg3_554_49638)" fill-opacity="1"/></g></g><g><g><path d="M11.4593,7.7170590460300446L4.96372,7.7170590460300446L0,21.427959046030047L6.50391,21.427959046030047L11.4593,7.7170590460300446Z" fill="url(#master_svg4_554_49639)" fill-opacity="1"/></g></g><g><g><path d="M72.5638449609375,14.555777460336685C72.4801395609375,14.907339460336685,72.4299143609375,15.250533460336685,72.4131744609375,15.593727460336686C72.2876169609375,17.326427460336685,73.2502289609375,20.264487460336685,77.5777999609375,21.201987460336685C81.6123899609375,22.072527460336687,86.4505099609375,20.331447460336683,87.6727099609375,19.812477460336687L88.5683099609375,16.347077460336685Q85.3122099609375,18.757787460336687,81.58727996093751,19.427427460336684C77.15926996093751,20.222637460336685,72.1871669609375,19.000537460336684,72.5638449609375,14.555777460336685Z" fill="url(#master_svg5_554_49640)" fill-opacity="1"/></g></g><g><g><path d="M84.51742841796874,6.930243402719498C87.02852841796874,6.930243402719498,88.82812841796874,7.7338144027194975,89.75732841796875,8.914063402719497C90.30142841796875,9.608813402719498,90.55252841796874,10.429123402719497,90.46052841796875,11.291293402719496C90.20932841796875,13.777343402719499,87.36332841796875,14.714843402719499,86.04922841796875,14.974333402719498C84.88572841796875,15.200333402719497,78.03021841796875,16.3973434027195,77.95488841796875,16.4057334027195C78.66637841796874,21.361043402719496,87.39682841796875,16.9581434027195,88.56872841796874,16.3471334027195Q85.31252841796875,18.757843402719498,81.58769841796875,19.427443402719497C77.16805841796875,20.222743402719498,72.18758141796874,19.000543402719497,72.56425901796875,14.555803402719498C72.94930341796875,12.831473402719498,74.01235841796876,11.048553402719499,76.10499841796874,9.508373402719497C78.26459841796876,7.9263344027194975,80.44092841796875,7.172989402719498,83.68872841796875,6.955354902719498Q84.11562841796875,6.930243402719498,84.51742841796874,6.930243402719498ZM77.96322841796875,15.183593402719497Q78.08041841796874,15.191963402719498,82.38287841796875,14.338163402719498C86.68532841796875,13.484373402719498,86.58482841796875,9.114953402719497,83.54632841796875,9.968743402719497Q78.75842841796874,11.316403402719498,77.96322841796875,15.183593402719497Z" fill-rule="evenodd" fill="url(#master_svg6_554_49641)" fill-opacity="1"/></g></g></g><g><g><path d="M78.62456865234375,2.00837054C78.23106865234375,2,77.83766865234375,2,77.43586865234374,2C69.55086865234375,2,59.73225865234375,2.929132,51.10219865234375,5.3482199999999995L50.31536865234375,9.274000000000001C50.85108365234375,9.106580000000001,51.38678865234375,8.93918,51.92250865234375,8.78013C55.80643865234375,6.87165,64.46996865234375,3.43973,78.62456865234375,2.00837054Z" fill="url(#master_svg7_554_49642)" fill-opacity="1"/></g></g><g><g><path d="M28.67714345703125,7.742211754455567C28.67714345703125,7.080941754455567,28.55994345703125,6.495011754455566,28.34224345703125,5.976031754455566C27.49694345703125,3.8917617544555663,25.06944345703125,2.8538217544555664,21.930443457031252,2.8538217544555664L8.21954345703125,2.8538217544555664C13.42601345703125,3.1216787544555666,20.80884345703125,4.075921754455567,22.20674345703125,7.256721754455566C22.34894345703125,7.499471754455566,22.43274345703125,7.784061754455567,22.43274345703125,8.118891754455566Q22.43274345703125,11.483841754455566,11.20782345703125,14.421921754455566L18.28094345703125,21.444721754455568L26.29994345703125,21.444721754455568Q22.87634345703125,17.510621754455567,18.48184345703125,14.421921754455566C24.031543457031248,14.237721754455567,28.67714345703125,11.684741754455567,28.67714345703125,7.742211754455567Z" fill="url(#master_svg8_554_49643)" fill-opacity="1"/></g></g><g><g><path d="M72.15426857421875,7.541266742919922C70.54712857421875,7.700306242919922,68.93161857421875,7.884459242919922,67.30772857421874,8.093722242919922L64.15203857421875,21.46985524291992L69.14924857421875,21.46985524291992L72.45561857421875,7.516155242919922C72.35516857421875,7.516155242919922,72.26307857421875,7.532896142919922,72.15426857421875,7.541266742919922Z" fill="url(#master_svg9_554_49644)" fill-opacity="1"/></g></g><g><g><path d="M58.6608559375,9.349308111816406C57.5224659375,14.480447111816407,56.4761459375,18.615477111816407,55.5219059375,21.729377111816405C55.0782659375,23.135577111816406,54.5592859375,24.123277111816407,53.9649859375,24.717677111816407C53.2534859375,25.429177111816408,52.0899859375,25.981577111816407,50.4577309375,26.358277111816406C50.4409859375,26.374977111816406,50.4326179375,26.383277111816405,50.4158789375,26.400077111816405L49.7880859375,29.078677111816408C51.3701259375,28.953177111816405,55.5386459375,28.383877111816407,58.0832859375,25.906277111816408C59.4560259375,24.575277111816405,60.3516859375,22.608277111816406,60.8120859375,20.975977111816405L63.8924859375,8.562477111816406C62.1010859375,8.805223111816407,60.3516859375,9.073079111816407,58.6608559375,9.349308111816406Z" fill="url(#master_svga_554_49645)" fill-opacity="1"/></g></g><g><g><path d="M50.02225009765625,10.864362624023437L47.47760009765625,21.469764624023437L52.48318009765625,21.469764624023437L55.20361009765625,9.926864624023438C53.33698009765625,10.244945624023437,51.59591009765625,10.563024624023438,50.02225009765625,10.864362624023437Z" fill="url(#master_svgb_554_49646)" fill-opacity="1"/></g></g><g><g><path d="M42.33849643554687,7.080936431884766Q41.32559643554687,12.714306431884765,40.39649643554688,15.878366431884766C40.279296435546875,16.288536431884765,40.145296435546875,16.665226431884765,39.986296435546876,17.008406431884765C39.977896435546874,17.016786431884768,39.969596435546876,17.033466431884765,39.961196435546874,17.050226431884766C39.91099643554688,17.159036431884765,39.85239643554688,17.259536431884765,39.78539643554687,17.359936431884766C39.29999643554687,18.079836431884765,38.487996435546876,18.565236431884763,36.79712643554687,18.716036431884767C34.63753643554688,18.900136431884768,33.599586435546875,18.356036431884768,33.92603643554688,16.866066431884768L36.328386435546875,7.089307061884766L31.004716435546875,7.089307061884766L28.426593535546875,18.213736431884765C28.192221435546877,19.594936431884765,28.853490435546874,20.565836431884765,30.192776435546875,21.068136431884767C30.887536435546874,21.335936431884768,31.766436435546876,21.469936431884765,32.81275643554687,21.469936431884765C41.02419643554688,21.469936431884765,43.87029643554688,21.285736431884764,44.99189643554688,17.904036431884766Q45.577896435546876,16.121116431884765,47.544896435546875,7.089307061884766L42.33849643554687,7.089307061884766L42.33849643554687,7.080936431884766Z" fill="url(#master_svgc_554_49647)" fill-opacity="1"/></g></g></g></g><g><g><path d="M96.18212890625,21.60778017578125L103.54283890625,7.34130917578125L107.77172890625,7.34130917578125L109.08832890625,21.60778017578125L105.81689890625,21.60778017578125L105.65733890625,18.550680175781253L101.14911890625,18.550680175781253L99.69292890625,21.60778017578125L96.18212890625,21.60778017578125ZM102.44571890625,15.77329017578125L105.51767890625,15.77329017578125L105.31818890625,11.897000175781251Q105.27829890625,11.377480175781251,105.25835890625,10.83800017578125Q105.23839890625,10.29851017578125,105.25835890625,9.75902017578125L105.19850890625,9.75902017578125Q105.03892890624999,10.25855017578125,104.82947890625,10.74808017578125Q104.62002890625,11.23761017578125,104.36070890625,11.77711017578125L102.44571890625,15.77329017578125ZM110.64422890624999,21.60778017578125L112.95822890625,10.638180175781251L115.55132890625,10.638180175781251L115.39182890625,12.43648017578125L115.47152890625,12.43648017578125Q116.07002890625,11.477390175781249,116.84792890625,10.95789017578125Q117.62602890625,10.43837017578125,118.72302890625,10.43837017578125Q120.17922890625,10.43837017578125,120.87742890625,11.32753017578125Q121.57562890625,12.216690175781249,121.57562890625,13.57541017578125Q121.57562890625,14.01499017578125,121.51572890625,14.52450017578125Q121.45592890625,15.03402017578125,121.35622890625,15.55353017578125L120.07952890625,21.60778017578125L116.76822890625,21.60778017578125L118.06482890625,15.39368017578125Q118.12472890625,15.09397017578125,118.17452890625,14.75429017578125Q118.22432890625001,14.41460017578125,118.22432890625001,14.13487017578125Q118.22432890625001,13.61536017578125,117.98502890625,13.355610175781251Q117.74562890625,13.095860175781251,117.32672890625,13.095860175781251Q116.52882890625,13.095860175781251,115.93032890625,14.08492017578125Q115.33202890625,15.07398017578125,114.99292890625,16.69248017578125L113.95562890625,21.60778017578125L110.64422890624999,21.60778017578125ZM122.85222890625,21.60778017578125L126.04392890625,6.42218017578125L129.35522890625,6.42218017578125L127.95892890625001,13.05590017578125Q127.83922890625,13.57541017578125,127.64972890625,14.23478017578125Q127.46022890625,14.89415017578125,127.36042890625001,15.21385017578125L127.44022890625,15.21385017578125L131.56942890625,10.638180175781251L135.35952890625,10.638180175781251L130.53212890625,15.59349017578125L133.26492890625,21.60778017578125L129.53482890625,21.60778017578125L127.95892890625001,17.63148017578125L126.86172890625,18.25098017578125L126.16362890625,21.60778017578125L122.85222890625,21.60778017578125ZM138.29182890625,21.80758017578125Q137.47392890625,21.80758017578125,136.76582890625,21.407980175781248Q136.05762890625,21.008380175781248,135.62882890625,20.11918017578125Q135.19992890625,19.23008017578125,135.19992890625,17.73148017578125Q135.19992890625,16.55258017578125,135.51902890625,15.27379017578125Q135.83832890625,13.99500017578125,136.47652890625,12.89604017578125Q137.11492890625,11.79709017578125,138.04242890625,11.11773017578125Q138.97002890625,10.43837017578125,140.16692890625,10.43837017578125Q141.16432890625,10.43837017578125,141.79262890625,10.867970175781249Q142.42102890625,11.29756017578125,142.80002890625,12.01688017578125L142.87982890625,12.01688017578125L143.41842890625,10.638180175781251L146.03152890625,10.638180175781251L143.69762890625,21.60778017578125L141.12442890625,21.60778017578125L141.24412890625,20.28908017578125L141.16432890625,20.28908017578125Q140.66562890625,20.96838017578125,139.97742890625,21.38798017578125Q139.28922890625,21.80758017578125,138.29182890625,21.80758017578125ZM139.62832890625,19.13018017578125Q140.14692890625,19.13018017578125,140.59582890625,18.69058017578125Q141.04462890625,18.25098017578125,141.36372890625,17.55168017578125Q141.68292890625,16.85228017578125,141.82252890625,16.07308017578125Q141.88242890625,15.71341017578125,141.91232890625,15.36371017578125Q141.94222890625,15.01404017578125,141.94222890625,14.61442017578125Q141.94222890625,13.95504017578125,141.65302890625,13.53544017578125Q141.36372890625,13.11583017578125,140.84522890625,13.11583017578125Q140.38632890625001,13.11583017578125,139.96742890625,13.50547017578125Q139.54852890625,13.89510017578125,139.23942890625,14.54448017578125Q138.93012890625,15.19387017578125,138.75062890625,15.97312017578125Q138.57112890625,16.75248017578125,138.57112890625,17.55168017578125Q138.57112890625,19.13018017578125,139.62832890625,19.13018017578125ZM150.26052890625,21.80758017578125Q149.44262890625,21.80758017578125,148.73452890625,21.407980175781248Q148.02632890625,21.008380175781248,147.59742890625,20.11918017578125Q147.16862890625,19.23008017578125,147.16862890625,17.73148017578125Q147.16862890625,16.55258017578125,147.48772890625,15.27379017578125Q147.80682890625,13.99500017578125,148.44522890625,12.89604017578125Q149.08352890625,11.79709017578125,150.01112890625,11.11773017578125Q150.93862890625002,10.43837017578125,152.13562890625,10.43837017578125Q153.13292890625002,10.43837017578125,153.76132890625001,10.867970175781249Q154.38972890625,11.29756017578125,154.76872890625,12.01688017578125L154.84852890625,12.01688017578125L155.38702890625,10.638180175781251L158.00022890625002,10.638180175781251L155.66632890625,21.60778017578125L153.09302890625,21.60778017578125L153.21272890625,20.28908017578125L153.13292890625002,20.28908017578125Q152.63432890625,20.96838017578125,151.94612890625,21.38798017578125Q151.25792890625002,21.80758017578125,150.26052890625,21.80758017578125ZM151.59702890625,19.13018017578125Q152.11562890625,19.13018017578125,152.56442890625,18.69058017578125Q153.01332890625,18.25098017578125,153.33242890625002,17.55168017578125Q153.65152890625,16.85228017578125,153.79122890625,16.07308017578125Q153.85112890624998,15.71341017578125,153.88092890625,15.36371017578125Q153.91092890625,15.01404017578125,153.91092890625,14.61442017578125Q153.91092890625,13.95504017578125,153.62172890624998,13.53544017578125Q153.33242890625002,13.11583017578125,152.81372890625,13.11583017578125Q152.35492890625,13.11583017578125,151.93602890625,13.50547017578125Q151.51712890625,13.89510017578125,151.20792890625,14.54448017578125Q150.89872890625,15.19387017578125,150.71932890624998,15.97312017578125Q150.53972890625,16.75248017578125,150.53972890625,17.55168017578125Q150.53972890625,19.13018017578125,151.59702890625,19.13018017578125Z" fill="#737373" fill-opacity="1"/></g></g></g></g></g></g></svg>