<svg xmlns="http://www.w3.org/2000/svg" xmlns:xlink="http://www.w3.org/1999/xlink" fill="none" version="1.1" width="158" height="32" viewBox="0 0 158 32"><defs><clipPath id="master_svg0_554_49692"><rect x="0" y="0" width="158" height="32" rx="0"/></clipPath></defs><g clip-path="url(#master_svg0_554_49692)"><g><g><g><g><g><g><g><g><path d="M84.91077083740234,4.026571611362994Q87.37997083740234,3.8846916113629937,88.80297083740234,3.8679986113629936C88.29237083740234,3.7678456113629935,87.73157083740234,3.676036611362994,87.12897083740233,3.584227611362994C84.85207083740235,3.258726611362994,81.93917083740234,3.050072811362994,78.63277083740235,3.0083416113629937C64.47817083740235,4.427201611362994,55.806360837402345,7.857481611362994,51.939170837402344,9.760411611362994C65.60827083740234,5.629041611362993,78.64117083740234,4.3938116113629935,84.91077083740234,4.026571611362994Z" fill="#FFFFFF" fill-opacity="1"/></g></g></g><g><g><g><path d="M8.219835778121947,3.851306797005236L2.954775778121948,3.851306797005236L1.6824557781219482,6.797506797005236L18.29795577812195,6.797506797005236Q21.35315577812195,6.730746797005237,22.206955778121948,8.241396797005237C20.80075577812195,5.069856797005237,13.426355778121948,4.118384797005236,8.219835778121947,3.851306797005236Z" fill="#FFFFFF" fill-opacity="1"/></g></g></g><g><g><g><path d="M11.4593,8.700450719334185L4.96372,8.700450719334185L0,22.371450719334184L6.5039,22.371450719334184L11.4593,8.700450719334185Z" fill="#FFFFFF" fill-opacity="1"/></g></g></g><g><g><g><path d="M72.56416339550782,15.519283116795123C72.48046119550781,15.869823116795123,72.43023549550782,16.21201811679512,72.41349709550781,16.554213116795122C72.28793839550781,18.281873116795122,73.25054339550782,21.211393116795122,77.57812039550781,22.146163116795123C81.61271039550782,23.014163116795125,86.45093039550781,21.27814311679512,87.67303039550781,20.760693116795125L88.56863039550781,17.305373116795124Q85.3125303955078,19.70906311679512,81.58760039550782,20.37676311679512C77.15957039550781,21.16965311679512,72.18748639550782,19.95111311679512,72.56416339550782,15.519283116795123Z" fill="#FFFFFF" fill-opacity="1"/></g></g></g><g><g><g><path d="M84.51726820068359,7.915904344059527C87.0282682006836,7.915904344059527,88.82806820068359,8.717136344059528,89.7571682006836,9.893954344059527C90.3012682006836,10.586684344059528,90.55226820068359,11.404604344059527,90.46036820068359,12.264274344059526C90.20916820068359,14.743084344059527,87.3630682006836,15.677854344059526,86.04906820068359,15.936594344059527C84.8855682006836,16.161934344059524,78.0300582006836,17.355464344059527,77.95472820068359,17.363824344059527C78.6662082006836,22.304704344059527,87.39666820068359,17.91461434405953,88.56856820068359,17.305404344059525Q85.3123682006836,19.709104344059526,81.5875282006836,20.37680434405953C77.16788820068359,21.169704344059525,72.1874182006836,19.951104344059527,72.5640957006836,15.519274344059527C72.9491422006836,13.799964344059527,74.0121982006836,12.022234344059527,76.1048282006836,10.486534344059526C78.2644282006836,8.909095344059526,80.44076820068359,8.157944344059526,83.68856820068359,7.940941344059527Q84.1154682006836,7.915904344059527,84.51726820068359,7.915904344059527ZM77.9630682006836,16.145244344059527Q78.0802482006836,16.153584344059524,82.3827182006836,15.302284344059526C86.68516820068359,14.450974344059528,86.5846682006836,10.094264344059527,83.5461682006836,10.945554344059527Q78.7582582006836,12.289314344059527,77.9630682006836,16.145244344059527Z" fill-rule="evenodd" fill="#FFFFFF" fill-opacity="1"/></g></g></g></g><g><g><g><path d="M78.62450380249024,3.00834602C78.23100380249024,3,77.83760380249024,3,77.43580380249023,3C69.55080380249024,3,59.73219380249024,3.9264289999999997,51.10212980249023,6.33847L50.315303802490234,10.25283C50.851016802490236,10.085899999999999,51.38672380249024,9.91899,51.922443802490235,9.76041C55.806373802490235,7.85747,64.46990380249024,4.43555,78.62450380249024,3.00834602Z" fill="#FFFFFF" fill-opacity="1"/></g></g></g><g><g><g><path d="M28.677537188720702,8.725476736469268C28.677537188720702,8.066126736469268,28.560237188720702,7.481896736469269,28.342637188720705,6.964426736469269C27.497237188720703,4.886236736469269,25.069737188720705,3.851306736469269,21.930737188720705,3.851306736469269L8.219837188720703,3.851306736469269C13.426307188720703,4.1183847364692685,20.809137188720705,5.069856736469269,22.207037188720705,8.24139673646927C22.349237188720704,8.483436736469269,22.433037188720704,8.76720673646927,22.433037188720704,9.101056736469268Q22.433037188720704,12.456216736469269,11.208117188720703,15.385706736469269L18.281237188720702,22.388206736469268L26.300237188720704,22.388206736469268Q22.876637188720704,18.46540673646927,18.482137188720703,15.385706736469269C24.0318371887207,15.202106736469268,28.677537188720702,12.656536736469269,28.677537188720702,8.725476736469268Z" fill="#FFFFFF" fill-opacity="1"/></g></g></g><g><g><g><path d="M72.15402443359375,8.525176052264404C70.54689443359375,8.683753852264404,68.93136443359376,8.867368852264404,67.30748443359374,9.076024852264403L64.15179443359375,22.413236852264404L69.14900443359375,22.413236852264404L72.45536443359376,8.500136852264404C72.35491443359375,8.500136852264404,72.26284443359376,8.516828852264405,72.15402443359375,8.525176052264404Z" fill="#FFFFFF" fill-opacity="1"/></g></g></g><g><g><g><path d="M58.66067901733398,10.327944194976807C57.522279017333986,15.444152194976807,56.475959017333984,19.567202194976808,55.521719017333986,22.672002194976805C55.078079017333984,24.074202194976806,54.559099017333985,25.059002194976806,53.96479901733399,25.651602194976807C53.25329901733399,26.361002194976805,52.089789017333985,26.911802194976808,50.45754601733398,27.287402194976806C50.440802017333986,27.304102194976807,50.432433017333985,27.312402194976805,50.41569401733398,27.329102194976805L49.787899017333984,30.00000219497681C51.369939017333984,29.874802194976805,55.538459017333984,29.307102194976807,58.083099017333986,26.836702194976805C59.45584901733398,25.509602194976807,60.351499017333985,23.54840219497681,60.811899017333985,21.920902194976804L63.892199017333986,9.543402194976807C62.10089901733399,9.785442194976806,60.351499017333985,10.052517194976806,58.66067901733398,10.327944194976807Z" fill="#FFFFFF" fill-opacity="1"/></g></g></g><g><g><g><path d="M50.022303503417966,11.838608634490967L47.47765350341797,22.413238634490966L52.48322350341797,22.413238634490966L55.20365350341797,10.903838634490967C53.33703350341797,11.220994634490967,51.59596350341797,11.538149634490967,50.022303503417966,11.838608634490967Z" fill="#FFFFFF" fill-opacity="1"/></g></g></g><g><g><g><path d="M42.33810079650879,8.066123485565186Q41.325300796508785,13.683093485565186,40.39620079650879,16.837953485565187C40.27900079650879,17.246933485565187,40.14500079650879,17.622533485565185,39.98600079650879,17.964703485565188C39.97760079650879,17.973073485565187,39.96930079650879,17.989693485565184,39.96090079650879,18.006413485565183C39.91070079650879,18.114923485565186,39.85210079650879,18.215123485565186,39.785100796508786,18.315223485565184C39.29970079650879,19.033023485565188,38.48760079650879,19.517023485565186,36.796830796508786,19.667323485565184C34.63723079650879,19.851023485565186,33.599280796508786,19.308423485565186,33.92573079650879,17.822783485565186L36.32809079650879,8.074470615565186L31.00442079650879,8.074470615565186L28.42629649650879,19.166523485565186C28.19192679650879,20.543623485565185,28.85319379650879,21.511823485565188,30.19249079650879,22.012623485565186C30.88723079650879,22.279623485565185,31.76614079650879,22.413223485565183,32.81246079650879,22.413223485565183C41.02390079650879,22.413223485565183,43.87000079650879,22.229623485565185,44.99160079650879,18.857823485565184Q45.57760079650879,17.080003485565186,47.54460079650879,8.074470615565186L42.33810079650879,8.074470615565186L42.33810079650879,8.066123485565186Z" fill="#FFFFFF" fill-opacity="1"/></g></g></g></g></g><g><g><g><path d="M96.18189239501953,22.550686975860597L103.54261239501953,8.325740975860596L107.77149239501954,8.325740975860596L109.08809239501953,22.550686975860597L105.81666239501953,22.550686975860597L105.65709239501953,19.502586975860595L101.14888239501953,19.502586975860595L99.69270239501954,22.550686975860597L96.18189239501953,22.550686975860597ZM102.44548239501952,16.733186975860598L105.51744239501953,16.733186975860598L105.31795239501953,12.868166975860596Q105.27806239501953,12.350176975860595,105.25812239501953,11.812256975860596Q105.23816239501953,11.274336975860596,105.25812239501953,10.736416975860596L105.19827239501953,10.736416975860596Q105.03869239501952,11.234496975860596,104.82923239501953,11.722606975860597Q104.61979239501953,12.210706975860596,104.36046239501954,12.748636975860595L102.44548239501952,16.733186975860598ZM110.64399239501952,22.550686975860597L112.95799239501953,11.613026975860596L115.55119239501953,11.613026975860596L115.39159239501953,13.406086975860596L115.47139239501954,13.406086975860596Q116.06989239501954,12.449786975860595,116.84779239501952,11.931786975860597Q117.62579239501953,11.413796975860595,118.72279239501952,11.413796975860595Q120.17899239501953,11.413796975860595,120.87729239501954,12.300366975860594Q121.57539239501953,13.186936975860597,121.57539239501953,14.541706975860595Q121.57539239501953,14.980006975860595,121.51559239501952,15.488036975860595Q121.45569239501953,15.996066975860595,121.35589239501954,16.514066975860594L120.07939239501954,22.550686975860597L116.76799239501953,22.550686975860597L118.06459239501953,16.354686975860595Q118.12439239501953,16.055846975860597,118.17429239501953,15.717146975860596Q118.22409239501954,15.378456975860596,118.22409239501954,15.099536975860595Q118.22409239501954,14.581546975860595,117.98479239501953,14.322546975860597Q117.74549239501954,14.063556975860596,117.32649239501953,14.063556975860596Q116.52849239501953,14.063556975860596,115.93009239501953,15.049736975860597Q115.33179239501953,16.035916975860594,114.99269239501953,17.649686975860597L113.95539239501953,22.550686975860597L110.64399239501952,22.550686975860597ZM122.85199239501954,22.550686975860597L126.04379239501952,7.409286975860596L129.35499239501954,7.409286975860596L127.95869239501954,14.023696975860595Q127.83899239501953,14.541706975860595,127.64949239501954,15.199156975860596Q127.45989239501952,15.856606975860595,127.36029239501953,16.175376975860594L127.43999239501953,16.175376975860594L131.56919239501954,11.613026975860596L135.35919239501953,11.613026975860596L130.53189239501953,16.553916975860595L133.26469239501952,22.550686975860597L129.53459239501953,22.550686975860597L127.95869239501954,18.585986975860596L126.86149239501952,19.203686975860595L126.16329239501954,22.550686975860597L122.85199239501954,22.550686975860597ZM138.29159239501953,22.749986975860594Q137.47369239501953,22.749986975860594,136.76559239501952,22.351386975860596Q136.05749239501952,21.952986975860597,135.62859239501952,21.066386975860595Q135.19969239501953,20.179886975860597,135.19969239501953,18.685686975860598Q135.19969239501953,17.510286975860595,135.51889239501952,16.235146975860594Q135.83809239501954,14.960086975860595,136.47639239501953,13.864316975860596Q137.11459239501954,12.768566975860596,138.04219239501953,12.091176975860595Q138.96969239501954,11.413796975860595,140.16659239501953,11.413796975860595Q141.16409239501954,11.413796975860595,141.79229239501953,11.842136975860596Q142.42089239501954,12.270486975860596,142.79979239501952,12.987716975860597L142.87959239501953,12.987716975860597L143.41819239501953,11.613026975860596L146.03119239501953,11.613026975860596L143.69739239501953,22.550686975860597L141.12409239501955,22.550686975860597L141.24389239501954,21.235786975860595L141.16409239501954,21.235786975860595Q140.66539239501952,21.913186975860597,139.97719239501953,22.331486975860596Q139.28889239501953,22.749986975860594,138.29159239501953,22.749986975860594ZM139.62809239501954,20.080286975860595Q140.14669239501953,20.080286975860595,140.59549239501953,19.641986975860597Q141.04439239501954,19.203686975860595,141.36359239501954,18.506386975860593Q141.68259239501953,17.809086975860595,141.82229239501953,17.032096975860597Q141.88229239501953,16.673476975860595,141.91199239501952,16.324796975860593Q141.94199239501953,15.976136975860596,141.94199239501953,15.577696975860595Q141.94199239501953,14.920226975860595,141.65279239501953,14.501856975860596Q141.36359239501954,14.083466975860595,140.84489239501954,14.083466975860595Q140.3859923950195,14.083466975860595,139.96729239501954,14.471966975860596Q139.54829239501953,14.860466975860597,139.23909239501953,15.507956975860596Q138.92989239501952,16.155446975860595,138.75049239501953,16.932436975860597Q138.57089239501954,17.709486975860596,138.57089239501954,18.506386975860593Q138.57089239501954,20.080286975860595,139.62809239501954,20.080286975860595ZM150.26029239501952,22.749986975860594Q149.44229239501954,22.749986975860594,148.73429239501954,22.351386975860596Q148.02609239501953,21.952986975860597,147.59719239501953,21.066386975860595Q147.16829239501953,20.179886975860597,147.16829239501953,18.685686975860598Q147.16829239501953,17.510286975860595,147.48749239501953,16.235146975860594Q147.80659239501952,14.960086975860595,148.44499239501954,13.864316975860596Q149.08329239501953,12.768566975860596,150.01079239501954,12.091176975860595Q150.93839239501955,11.413796975860595,152.13529239501952,11.413796975860595Q153.13269239501955,11.413796975860595,153.76109239501955,11.842136975860596Q154.38949239501954,12.270486975860596,154.76839239501953,12.987716975860597L154.84819239501954,12.987716975860597L155.38679239501954,11.613026975860596L157.99999239501955,11.613026975860596L155.66599239501954,22.550686975860597L153.09289239501953,22.550686975860597L153.21249239501952,21.235786975860595L153.13269239501955,21.235786975860595Q152.63409239501954,21.913186975860597,151.94579239501954,22.331486975860596Q151.25769239501955,22.749986975860594,150.26029239501952,22.749986975860594ZM151.59679239501952,20.080286975860595Q152.11539239501954,20.080286975860595,152.56419239501952,19.641986975860597Q153.01299239501952,19.203686975860595,153.33219239501955,18.506386975860593Q153.65129239501954,17.809086975860595,153.79099239501954,17.032096975860597Q153.8508923950195,16.673476975860595,153.88069239501954,16.324796975860593Q153.91059239501953,15.976136975860596,153.91059239501953,15.577696975860595Q153.91059239501953,14.920226975860595,153.62149239501952,14.501856975860596Q153.33219239501955,14.083466975860595,152.81349239501952,14.083466975860595Q152.35469239501953,14.083466975860595,151.93579239501952,14.471966975860596Q151.51689239501954,14.860466975860597,151.20769239501954,15.507956975860596Q150.89849239501953,16.155446975860595,150.71909239501952,16.932436975860597Q150.53949239501952,17.709486975860596,150.53949239501952,18.506386975860593Q150.53949239501952,20.080286975860595,151.59679239501952,20.080286975860595Z" fill="#FFFFFF" fill-opacity="1"/></g></g></g></g></g></g></svg>