<svg xmlns="http://www.w3.org/2000/svg" xmlns:xlink="http://www.w3.org/1999/xlink" fill="none" version="1.1" width="24" height="24" viewBox="0 0 24 24"><defs><clipPath id="master_svg0_195_32782"><rect x="0" y="0" width="24" height="24" rx="0"/></clipPath></defs><g clip-path="url(#master_svg0_195_32782)"><g><path d="M15.9303765625,4.321197509765625L15.9303765625,10.940717509765625L20.6662765625,7.630947509765625L15.9303765625,4.321197509765625ZM6.7077365625,6.647627509765625L15.9303765625,6.647627509765625L15.9303765625,8.122007509765625L6.7077365625,8.122007509765625L6.7077365625,6.647627509765625ZM7.7368265625,13.482987509765625L7.7368265625,20.102497509765627L3.0009765625,16.792697509765624L7.7368265625,13.482987509765625Z" fill="#4E5969" fill-opacity="1"/></g><g><path d="M7.7128265625,15.809418784179687L16.9834765625,15.809418784179687L16.9834765625,17.28382878417969L7.7128265625,17.28382878417969L7.7128265625,15.809418784179687ZM3.0009765625,6.6476287841796875L4.5731665625,6.6476287841796875L4.5731665625,8.122008784179688L3.000976800919,8.122008784179688L3.0009765625,6.6476287841796875ZM19.4983765625,15.822028784179688L21.0705765625,15.822028784179688L21.0705765625,17.29642878417969L19.4983765625,17.29642878417969L19.4983765625,15.822028784179688Z" fill="#4E5969" fill-opacity="1"/></g></g></svg>