<svg xmlns="http://www.w3.org/2000/svg" xmlns:xlink="http://www.w3.org/1999/xlink" fill="none" version="1.1" width="18" height="18" viewBox="0 0 18 18"><defs><clipPath id="master_svg0_195_32813"><rect x="0" y="0" width="18" height="18" rx="0"/></clipPath></defs><g clip-path="url(#master_svg0_195_32813)"><g><path d="M14.63848828125,2.6639482421875C14.54398828125,2.6594482421875,14.45398828125,2.6594482421875,14.35948828125,2.6639482421875L5.63848828125,2.6639482421875C5.43148828125,2.6639482421875,5.26498828125,2.4974482421874997,5.26498828125,2.2904482421875L5.26498828125,1.6829482421875C5.26498828125,1.4759482421875,5.09848828125,1.3094482421875,4.89148828125,1.3094482421875L2.12398828125,1.3094482421875C1.91698828125,1.3094482421875,1.75048828125,1.4759482421875,1.75048828125,1.6829482421875L1.75048828125,4.9409482421875C1.75048828125,5.1479482421875,1.91698828125,5.3144482421875,2.12398828125,5.3144482421875L4.89598828125,5.3144482421875C5.10298828125,5.3144482421875,5.26948828125,5.1479482421875,5.26948828125,4.9409482421875L5.26948828125,4.3514482421875C5.26948828125,4.1444482421875,5.43598828125,3.9779482421875,5.64298828125,3.9779482421875L14.37298828125,3.9779482421875C15.22348828125,4.045448242187501,15.86698828125,4.7789482421875,15.82198828125,5.6294482421875L15.82198828125,5.6609482421875C15.86698828125,6.5159482421875,15.21898828125,7.2494482421875,14.36848828125,7.3124482421875L13.76998828125,7.3124482421875C13.66648828125,7.3124482421875,13.58548828125,7.2314482421875,13.58548828125,7.1279482421875L13.58548828125,6.4574482421875C13.58548828125,6.2864482421875,13.37848828125,6.2054482421875,13.26148828125,6.3314482421875L12.90148828125,6.7274482421875L12.35248828125,7.3079482421875L12.24448828125,7.4249482421875L11.84848828125,7.8524482421875C11.78098828125,7.9244482421875,11.78098828125,8.032448242187499,11.84848828125,8.1044482421875L12.35698828125,8.6624482421875L12.90598828125,9.251948242187499L13.26598828125,9.6479482421875C13.37848828125,9.7739482421875,13.58998828125,9.6929482421875,13.58998828125,9.5219482421875L13.58998828125,8.8199482421875C13.58998828125,8.7164482421875,13.67098828125,8.6354482421875,13.77448828125,8.6354482421875L14.36398828125,8.6354482421875C15.90748828125,8.5274482421875,17.072988281249998,7.1999482421875,16.987488281250002,5.6564482421875L16.987488281250002,5.6249482421875C17.04598828125,4.198448242187499,16.04698828125,2.9339482421875003,14.63848828125,2.6639482421875Z" fill="#86909C" fill-opacity="1"/></g><g><path d="M7.9064786328125,12.15447265625L3.6809786328125,12.15447265625C2.8394786328125,12.082472656250001,2.2049786328125,11.362472656249999,2.2364786328125,10.51647265625L2.2364786328125,10.484972656250001C2.1914786328125,9.63447265625,2.8304786328125,8.90097265625,3.6809786328125,8.83347265625L7.0694786328125,8.83347265625C7.3169786328125,8.83347265625,7.5149786328125,9.03147265625,7.5149786328125,9.27897265625L7.5149786328125,9.75597265625C7.5149786328125,10.00347265625,7.7129786328125,10.20147265625,7.9604786328125,10.20147265625L10.5839786328125,10.20147265625C10.8314786328125,10.20147265625,11.0294786328125,10.00347265625,11.0294786328125,9.75597265625L11.0294786328125,6.59247265625C11.0294786328125,6.34497265625,10.8314786328125,6.14697265625,10.5839786328125,6.14697265625L7.9604786328125,6.14697265625C7.7129786328125,6.14697265625,7.5149786328125,6.34497265625,7.5149786328125,6.59247265625L7.5149786328125,7.06497365625C7.5149786328125,7.31247265625,7.3169786328125,7.51047265625,7.0694786328125,7.51047265625L3.4559786328125,7.51047265625C3.4244786328125,7.51047265625,3.3929786328125,7.51497265625,3.3659786328125,7.5194726562500005C1.9799796328125,7.80747265625,1.0034799328125,9.06297265625,1.0664800428125,10.484972656250001L1.0664800428125,10.51647265625C1.0034800328125,11.93847265625,1.9844796328125,13.19397265625,3.3794786328125,13.47297265625C3.4019786328125,13.47747265625,3.4244786328125,13.48197265625,3.4469786328125,13.48197265625C3.5279786328125,13.486472656250001,3.6089786328125,13.486472656250001,3.6899786328125,13.48197265625L8.1989786328125,13.48197265625C8.009978632812501,13.23447265625,7.9064786328125,12.93297265625,7.9064786328125,12.62247265625L7.9064786328125,12.15447265625ZM15.9434986328125,13.48197265625C15.9434986328125,13.17147265625,15.6914986328125,12.91947265625,15.3809986328125,12.91497265625C15.2279986328125,12.91497265625,15.0884986328125,12.81597265625,15.0389986328125,12.66747265625C15.0074986328125,12.56847265625,14.9669986328125,12.46947265625,14.9219986328125,12.37497265625C14.8544986328125,12.23547265625,14.8814986328125,12.06447265625,14.9894986328125,11.95197265625L15.2504986328125,11.69097265625C15.2864986328125,11.65497265625,15.3044986328125,11.60547265625,15.3044986328125,11.555972656249999C15.3044986328125,11.50647265625,15.2864986328125,11.456972656249999,15.2504986328125,11.420972656250001L14.6609986328125,10.83147265625C14.6249986328125,10.79547265625,14.5799986328125,10.77747265625,14.5304986328125,10.77747265625C14.4809986328125,10.77747265625,14.4314986328125,10.79547265625,14.3954986328125,10.83147265625L14.1344986328125,11.09247265625C14.0264986328125,11.20497265625,13.8599986328125,11.236472656250001,13.7159986328125,11.16897265625L13.5224986328125,11.07897265625L13.4279986328125,11.07897265625C13.2794986328125,11.02947265625,13.1804986328125,10.88997265625,13.1804986328125,10.73697265625C13.1804986328125,10.49847265625,13.0319986328125,10.28697265625,12.8114986328125,10.205972656250001C12.7484986328125,10.19697265625,12.6899986328125,10.19697265625,12.6269986328125,10.205972656250001L12.5324986328125,10.205972656250001C12.2219986328125,10.210472656250001,11.9699986328125,10.46247265625,11.9699986328125,10.772972656250001C11.9699986328125,10.92597265625,11.8709986328125,11.06547265625,11.7224986328125,11.11497265625C11.6234986328125,11.15097265625,11.5289986328125,11.19147265625,11.4344986328125,11.236472656250001C11.3804986328125,11.26347265625,11.3174986328125,11.276972656249999,11.2589986328125,11.272472656249999C11.1689986328125,11.26797265625,11.0834986328125,11.23197265625,11.0204786328125,11.16447265625L10.9799786328125,11.12397265625L10.7594786328125,10.903472656249999C10.7234786328125,10.867472656250001,10.6784786328125,10.84947265625,10.6289786328125,10.84947265625C10.5794786328125,10.84947265625,10.5299786328125,10.867472656250001,10.4939786328125,10.903472656249999L10.2959786328125,11.11047265625L9.9134786328125,11.49297265625C9.8774786328125,11.52897265625,9.8594786328125,11.57847265625,9.8594786328125,11.62797265625C9.8549786328125,11.67747265625,9.8774786328125,11.73147265625,9.9134786328125,11.76297265625L10.1744786328125,12.023972656249999C10.2509786328125,12.10497265625,10.2869786328125,12.212972656249999,10.2779786328125,12.32547265625C10.2734786328125,12.365972656250001,10.2599786328125,12.41097265625,10.2419786328125,12.44697265625C10.1969786328125,12.54147265625,10.1609786328125,12.640472656250001,10.1249786328125,12.739472656250001C10.0754786328125,12.88797265625,9.9404786328125,12.98697265625,9.7829786328125,12.99147265625C9.4724786328125,12.99147265625,9.2204786328125,13.243472656249999,9.2204786328125,13.55397265625L9.2204786328125,13.64847265625C9.2114786328125,13.706972656249999,9.2114786328125,13.76097265625,9.2204786328125,13.81947265625C9.2924786328125,14.053472656250001,9.5084786328125,14.21547265625,9.7514786328125,14.21547265625C9.9044786328125,14.21547265625,10.0439786328125,14.31447265625,10.0934786328125,14.46297265625C10.1294786328125,14.56647265625,10.1699786328125,14.66097265625,10.2104786328125,14.75547265625C10.2419786328125,14.84097265625,10.2419786328125,14.93097265625,10.2104786328125,15.01647265625C10.1924786328125,15.07497265625,10.1609786328125,15.13347265625,10.1159786328125,15.17397265625L9.8549786328125,15.43497265625C9.8234786328125,15.47097265625,9.8009786328125,15.52047265625,9.8009786328125,15.56997265625C9.8009786328125,15.61947265625,9.8189786328125,15.66897265625,9.8549786328125,15.70497265625L10.4444786328125,16.29447265625C10.4759786328125,16.330472656250002,10.5254786328125,16.35297265625,10.5749786328125,16.34847265625C10.6244786328125,16.35297265625,10.6784786328125,16.330472656250002,10.7099786328125,16.29447265625L10.9709786328125,16.033472656249998C11.0789986328125,15.92547265625,11.2499986328125,15.89397265625,11.3894986328125,15.96597265625L11.6774986328125,16.08747265625C11.8259986328125,16.141472656250002,11.9249986328125,16.28097265625,11.9249986328125,16.43397265625C11.9249986328125,16.74447265625,12.1769986328125,16.99647265625,12.4874986328125,16.99647265625L12.6179986328125,16.99647265625C12.9149986328125,16.97847265625,13.1399986328125,16.73097265625,13.1354986328125,16.43397265625C13.1399986328125,16.27647265625,13.2389986328125,16.136972656250002,13.3874986328125,16.08747265625L13.4909986328125,16.04697265625L13.6844986328125,15.96597265625C13.8239986328125,15.89847265625,13.9904986328125,15.92547265625,14.1029986328125,16.033472656249998L14.3639986328125,16.29447265625C14.3954986328125,16.330472656250002,14.4449986328125,16.35297265625,14.4944986328125,16.34847265625C14.5439986328125,16.35297265625,14.5979986328125,16.330472656250002,14.6294986328125,16.29447265625L15.2189986328125,15.70497265625C15.2549986328125,15.66897265625,15.2729986328125,15.61947265625,15.2729986328125,15.56997265625C15.2729986328125,15.51597265625,15.2504986328125,15.46647265625,15.2099986328125,15.43497265625L14.9579986328125,15.17397265625C14.8454986328125,15.06597265625,14.8184986328125,14.89947265625,14.8814986328125,14.75547265625C14.9264986328125,14.66097265625,14.9714986328125,14.56197265625,15.0029986328125,14.46297265625C15.0524986328125,14.31447265625,15.1874986328125,14.21547265625,15.3449986328125,14.21547265625C15.6554986328125,14.21097265625,15.9029986328125,13.958972656250001,15.8984986328125,13.64847265625L15.9434986328125,13.48197265625ZM13.2749986328125,14.94897265625C13.1039986328125,15.04797265625,12.9149986328125,15.10647265625,12.7214986328125,15.12447265625C12.6404986328125,15.13347265625,12.5594986328125,15.13347265625,12.4739986328125,15.12447265625C11.6999986328125,15.08847265625,11.0654986328125,14.48997265625,10.9889786328125,13.715972656249999L10.9889786328125,13.612472656249999C10.9754786328125,13.211972656250001,11.1104986328125,12.82047265625,11.3714986328125,12.51897265625C11.4434986328125,12.42897265625,11.5289986328125,12.35247265625,11.6234986328125,12.28497265625C11.8889986328125,12.082472656250001,12.2174986328125,11.96997265625,12.5549986328125,11.96997265625L12.7304986328125,11.96997265625C12.9239986328125,11.987972656250001,13.1129986328125,12.05097265625,13.2839986328125,12.14547265625C14.0489986328125,12.55947265625,14.3324986328125,13.50897265625,13.9229986328125,14.27397265625C13.7789986328125,14.54397265625,13.5539986328125,14.76897265625,13.2839986328125,14.91297265625L13.2749986328125,14.94897265625Z" fill="#86909C" fill-opacity="1"/></g></g></svg>