<svg xmlns="http://www.w3.org/2000/svg" xmlns:xlink="http://www.w3.org/1999/xlink" fill="none" version="1.1" width="19.107421875" height="18" viewBox="0 0 19.107421875 18"><defs><clipPath id="master_svg0_195_32787"><rect x="0" y="0" width="19.107421875" height="18" rx="0"/></clipPath></defs><g clip-path="url(#master_svg0_195_32787)"><g><path d="M16.298473242187498,13.02301796875C15.1239732421875,13.02331796875,14.1105732421875,13.84711796875,13.8705732421875,14.99681796875L7.6995832421875,14.99461796875C7.5377232421875,14.88671796875,7.4388032421875,14.14931796875,7.3814832421875,13.64241796875L9.1720632421875,13.64241796875C9.8688432421875,14.57771796875,11.3113532421875,14.43181796875,11.8067732421875,13.37601796875C12.2091732421875,12.53451796875,11.7831732421875,11.53081796875,10.8983932421875,11.23551796875C10.0136232421875,10.94021796875,9.0702332421875,11.48701796875,8.8865632421875,12.40151796875L7.2162432421875,12.40151796875C6.9914432421875,11.17851796875,6.4743832421875,9.92184796875,4.849033242187501,9.92184796875L2.0344462421875003,9.92184796875C1.6817332421875,9.90682796875,1.3875802159275,10.18871796875,1.3875802159275,10.54171796875C1.3875803053375,10.89481796875,1.6817332421875,11.17671796875,2.0344462421875003,11.16161796875L4.849033242187501,11.16161796875C5.4751132421875,11.16161796875,5.7628732421875,11.54491796875,5.9472132421875,12.40261796875L2.0344462421875003,12.40261796875C1.6817302421875,12.38761796875,1.3875732421875,12.66941796875,1.3875732421875,13.02251796875C1.3875732421875,13.37551796875,1.6817302421875,13.65741796875,2.0344462421875003,13.64241796875L6.1338032421875,13.64241796875C6.2641932421875,14.80691796875,6.4361632421875,16.23551796875,7.7276832421875,16.23551796875L13.8941732421875,16.23551796875C13.9087732421875,16.23551796875,13.9210732421875,16.22881796875,13.9368732421875,16.22651796875C14.2904732421875,17.40391796875,15.4551732421875,18.14271796875,16.6708732421875,17.96091796875C17.8866732421875,17.77921796875,18.7843732421875,16.73191796875,18.7780732421875,15.50271796875C18.7780732421875,14.13261796875,17.6673732421875,13.02191796875,16.2972732421875,13.02191796875L16.298473242187498,13.02301796875ZM16.298473242187498,16.74361796875C15.7088732421875,16.74001796875,15.2030732421875,16.32251796875,15.0878732421875,15.74431796875C14.9726732421875,15.16611796875,15.2797732421875,14.58651796875,15.8229732421875,14.35731796875C16.639773242187502,14.02071796875,17.5369732421875,14.62041796875,17.5382732421875,15.50381796875C17.5382732421875,16.18911796875,16.982673242187502,16.74471796875,16.2972732421875,16.74471796875L16.298473242187498,16.74361796875ZM2.0344462421875003,8.68315796875L9.4856732421875,8.68315796875C9.5115232421875,8.68315796875,9.5340032421875,8.67191796875,9.5587332421875,8.66854796875C9.8588332421875,9.88631796875,11.0223732421875,10.68711796875,12.2669732421875,10.53251796875C13.5116732421875,10.37801796875,14.4439732421875,9.31687796875,14.4370732421875,8.06269796875C14.4364732421875,6.69305796875,13.3259732421875,5.58307796875,11.9562732421875,5.58307796875C10.8218932421875,5.58475796875,9.8338332421875,6.35741796875,9.5587332421875,7.45796796875C9.5340032421875,7.45458796875,9.5115232421875,7.44334796875,9.4856732421875,7.44334796875L2.0333232421875,7.44334796875C1.7012232421875,7.45749796875,1.4392690421875,7.73085796875,1.4392690421875,8.06325796875C1.4392690421875,8.39565796875,1.7012232421875,8.66900796875,2.0333232421875,8.68315796875L2.0344462421875003,8.68315796875ZM11.9562732421875,6.82288796875C12.6559732421875,6.80181796875,13.2345732421875,7.36326796875,13.2345732421875,8.06325796875C13.2345732421875,8.76324796875,12.6559732421875,9.32469796875,11.9562732421875,9.30362796875C11.2858032421875,9.28343796875,10.7527232421875,8.73405796875,10.7527232421875,8.06325796875C10.7527232421875,7.39245796875,11.2858032421875,6.84307796875,11.9562732421875,6.82288796875ZM2.0344462421875003,6.31369796875L4.849033242187501,6.31369796875C6.9464832421875,6.31369796875,7.2050032421875,4.56469796875,7.3601232421875,3.51934796875C7.4905132421875,2.63697796875,7.5691932421875,2.48073796875,7.7276832421875,2.48073796875L13.5141732421875,2.48073796875C14.2110732421875,3.41473796875,15.6520732421875,3.26897796875,16.1478732421875,2.21434796875C16.5432732421875,1.37442796875,16.116673242187503,0.37764296875,15.2360732421875,0.08376786875C14.3554732421875,-0.21010703125,13.4157732421875,0.33074196875,13.2275732421875,1.23980796875L7.7276832421875,1.23980796875C6.4429132421875,1.23980796875,6.2563232421875,2.50209796875,6.1326732421875,3.33725796875C5.9505832421875,4.57144796875,5.7842232421875,5.07388796875,4.849033242187501,5.07388796875L2.0344462421875003,5.07388796875C1.6817302421875,5.05886796875,1.3875732421875,5.34075796875,1.3875732421875,5.69378796875C1.3875732421875,6.04682796875,1.6817302421875,6.32871796875,2.0344462421875003,6.31369796875Z" fill="#86909C" fill-opacity="1"/></g></g></svg>