<svg xmlns="http://www.w3.org/2000/svg" xmlns:xlink="http://www.w3.org/1999/xlink" fill="none" version="1.1" width="18" height="18" viewBox="0 0 18 18"><defs><clipPath id="master_svg0_195_32830"><rect x="0" y="0" width="18" height="18" rx="0"/></clipPath></defs><g clip-path="url(#master_svg0_195_32830)"><g><path d="M3.57542890625,11.8102754296875L3.57542890625,6.8215354296875L0.99463123083,5.2420654296875L0.99463123083,13.4761754296875C0.99408987125,13.6555854296875,1.08958810625,13.8215654296875,1.24496190625,13.9112654296875L8.33171890625,17.985065429687502L8.33171890625,14.9811354296875L3.92111890625,12.4152454296875C3.70618890625,12.2897354296875,3.57443890625,12.0591754296875,3.57542890625,11.8102754296875ZM14.31582890625,6.9765054296875L14.31582890625,11.9205454296875C14.31362890625,12.1662454296875,14.18232890625,12.3926654296875,13.97012890625,12.5165654296875L9.65489890625,15.0198754296875L9.65489890625,17.9999654296875L16.73862890625,13.9112654296875C16.89612890625,13.8232654296875,16.99312890625,13.6565354296875,16.99202890625,13.4761754296875L16.99202890625,5.3374294296875L14.31582890625,6.9765054296875Z" fill="#86909C" fill-opacity="1"/></g><g><path d="M4.800293684006,11.3244906640625C4.80005407375,11.4196406640625,4.85137686875,11.5074606640625,4.93439996875,11.553960664062501L8.33175296875,13.5178706640625L8.33175296875,9.7360806640625L4.80029404163,7.5754806640625L4.800293684006,11.3244906640625ZM9.65493296875,13.4701806640625L12.95691296875,11.5599206640625C13.03994296875,11.513420664062501,13.09126296875,11.4256006640625,13.09102296875,11.3304506640625L13.09102296875,7.6321006640625L9.65493296875,9.7360806640625L9.65493296875,13.4701806640625ZM9.076782968749999,4.3748198640625C8.99503296875,4.3303009640625,8.89628296875,4.3303009640625,8.814532968750001,4.3748198640625L5.28307596875,6.4162106640625005L9.04102296875,8.7377306640625L12.72148296875,6.4817706640625L9.076782968749999,4.3748198640625Z" fill="#86909C" fill-opacity="1"/></g><g><path d="M8.6029482421875,3.12913484375C8.8158182421875,3.00968484375,9.0755182421875,3.00968484375,9.2883782421875,3.12913484375L13.9283982421875,5.74271484375L16.3840982421875,4.25264484375L9.1959982421875,0.06854084375C9.041088242187499,-0.02089385625,8.850238242187501,-0.02089385625,8.6953382421875,0.06854084375L1.5906982421875,4.14536484375L4.0701682421875,5.67714484375L8.6029482421875,3.12913484375Z" fill="#86909C" fill-opacity="1"/></g></g></svg>