<svg 
    xmlns="http://www.w3.org/2000/svg" 
    xmlns:xlink="http://www.w3.org/1999/xlink" 
    fill="none" 
    version="1.1" 
    width="24" 
    height="24" 
    viewBox="0 0 24 24">
        <defs>
            <clipPath id="master_svg0_195_32778">
                <rect x="0" y="0" width="24" height="24" rx="0"/>
            </clipPath>
        </defs>
        <g clip-path="url(#master_svg0_195_32778)">
            <g>
                <path d="M18.353532421875,2.361001238769531L21.889032421875,5.895997238769532C22.084532421875,6.091307238769531,22.084532421875,6.408197238769532,21.889032421875,6.603497238769531L18.354032421875,10.13899723876953C18.158632421875,10.334527238769532,17.841832421875,10.334527238769532,17.646532421875,10.13899723876953L17.293032421874997,9.785497238769532C17.097832421874998,9.590247238769532,17.097832421874998,9.27374723876953,17.293032421874997,9.07849723876953L19.370032421875,6.999997238769531L14.250032421875,6.999997238769531C13.591432421875,6.999897238769531,13.045732421875,7.510817238769532,13.002532421875,8.16799723876953L13.000032421875,8.24999723876953L13.000032421875,17.25000723876953C13.000132421875,18.72590723876953,11.835132421875,19.93870723876953,10.360482421875,19.99800723876953L10.249982421875,20.00000723876953L7.146482421875,20.00000723876953C6.628972421875,21.825607238769532,4.461712421875,22.59090723876953,2.9125824218750003,21.49500723876953C1.363448421875,20.39920723876953,1.363449421875,18.100807238769534,2.9125824218750003,17.004907238769533C4.461712421875,15.909107238769531,6.628972421875,16.674407238769533,7.146482421875,18.50000723876953L10.249982421875,18.50000723876953C10.908582421875,18.50010723876953,11.454282421875,17.98920723876953,11.497482421875,17.33200723876953L11.499982421875,17.25000723876953L11.499982421875,8.24999723876953C11.499862421875,6.774117238769532,12.664832421875,5.5613072387695315,14.139532421875,5.5019972387695315L14.250032421875,5.499997238769531L19.371032421875,5.499997238769531L17.293032421874997,3.4214972387695313C17.097832421874998,3.226247238769531,17.097832421874998,2.909750238769531,17.293032421874997,2.7145002387695314L17.646532421875,2.361001238769531C17.841732421875,2.1658094387695312,18.158232421875,2.1658094387695312,18.353532421875,2.361001238769531ZM4.499982421875,18.00000723876953C3.809152421875,17.999307238769532,3.248762421875,18.55920723876953,3.248762421875,19.25000723876953C3.248762421875,19.94080723876953,3.809152421875,20.500707238769532,4.499982421875,20.50000723876953C5.1898624218750005,20.499307238769532,5.748762421875,19.939907238769532,5.748762421875,19.25000723876953C5.748762421875,18.560107238769533,5.1898624218750005,18.00070723876953,4.499982421875,18.00000723876953Z" fill="#4E5969" fill-opacity="1"/>
            </g>
        </g>
</svg>