<svg xmlns="http://www.w3.org/2000/svg" xmlns:xlink="http://www.w3.org/1999/xlink" fill="none" version="1.1" width="18" height="18" viewBox="0 0 18 18"><defs><clipPath id="master_svg0_195_32818"><rect x="0" y="0" width="18" height="18" rx="0"/></clipPath></defs><g clip-path="url(#master_svg0_195_32818)"><g><path d="M11.473259765625,16.871526953125C11.264159765625,16.871526953125,11.058459765625,16.795926953125,10.894959765625,16.650026953125C10.360589765625,16.170126953125,9.567819765625,15.686726953125,9.001809765625,15.686726953125C8.402389765625,15.686726953125,7.606099765625,16.207026953125002,7.105129765625,16.651726953125C6.825629765625,16.899626953125,6.419579765625,16.941826953125002,6.096139765625,16.755426953125L3.737159765625,15.391426953125C3.415479765625,15.205126953125,3.248489765625,14.834226953125,3.322309765625,14.468526953125C3.457669765625,13.812926953125,3.506879765625,12.861926953125,3.208059765625,12.339826953125C2.879349765625,11.770326953125,1.919579765625,11.339626953125,1.404540765625,11.174426953125C1.096923765625,11.075976953125,0.870165765625,10.815826953125,0.8156737656249999,10.497656953125C0.810400765625,10.462506953125,0.666259765625,9.624026953125,0.666259765625,8.998246953125001C0.666259765625,8.372466953125,0.810400765625,7.533986953125,0.8156737656249999,7.498836953125C0.870165765625,7.180666953125,1.096923765625,6.920516953125,1.404540765625,6.822076953125C1.919579765625,6.656836953125,2.879349765625,6.226176953125,3.208059765625,5.654886953125L3.209809765625,5.653126953125C3.494579765625,5.162696953125,3.471729765625,4.236336953125,3.324069765625,3.533206953125C3.246729765625,3.167586953125,3.413719765625,2.793166953125,3.737159765625,2.6068369531249997L6.092629765625,1.246293953125C6.416059765625,1.058207853125,6.823879765625,1.102153153125,7.103369765625,1.351762953125C7.637739765625,1.831644953125,8.430519765625,2.315046953125,8.996529765625,2.315046953125C9.595949765625,2.315046953125,10.392239765625,1.794730953125,10.893259765625,1.350004953125C11.172659765625,1.102153053125,11.578759765625,1.059965553125,11.902159765625,1.246293953125L14.261159765625,2.6103569531249997C14.582859765625,2.796686953125,14.749859765625,3.167586953125,14.676059765625,3.533206953125C14.540659765625,4.188866953125,14.491459765625,5.138086953125,14.790259765625,5.658406953125C15.118959765625,6.227936953125,16.078759765625,6.658596953125,16.593759765625002,6.823836953125C16.901459765625,6.922266953125,17.128159765625,7.182426953125,17.182659765625,7.500586953125C17.187959765625,7.535746953125,17.332059765625,8.374226953125,17.332059765625,9.000006953125C17.332059765625,9.625786953125,17.187959765625,10.464266953125,17.182659765625,10.499416953125C17.128159765625,10.817586953125,16.901459765625,11.077736953125,16.593759765625002,11.176226953125C16.078759765625,11.341426953125,15.118959765625,11.772026953125,14.790259765625,12.341626953125L14.788559765625,12.343326953125C14.503759765625,12.833826953125,14.526659765625,13.760126953125,14.674259765625,14.463326953125C14.751659765625,14.828926953125,14.584659765625,15.203326953125,14.261159765625,15.389626953125L11.905759765625,16.753726953125C11.772159765625,16.832826953125,11.622659765625,16.871526953125,11.473259765625,16.871526953125ZM5.117039765625,14.190826953125L6.447699765625,14.960726953125C7.059419765625,14.507226953125,8.006879765625001,13.957026953125,9.001809765625,13.957026953125C9.620559765625,13.957026953125,10.290279765625,14.167926953125,10.989859765625,14.584526953125C11.200859765625,14.709426953125,11.392459765625,14.841226953125,11.554159765625,14.960726953125L12.881259765625,14.192626953125C12.858459765625,13.990426953125,12.840859765625,13.761926953125,12.839159765625,13.515826953125C12.828559765625,12.700226953125,12.981459765625,12.014626953125,13.292659765625,11.478526953125C13.818259765625,10.566216953125,14.864159765625,10.005476953125,15.547859765625,9.722466953125C15.577759765625,9.485156953125,15.602359765625,9.212696953125,15.602359765625,9.001766953125C15.602359765625,8.790826953125,15.576059765625,8.520126953125,15.547859765625,8.281056953124999C14.864159765625,7.996296953125,13.819959765625,7.437306953125,13.292659765625,6.523246953125C12.796959765625,5.661916953125,12.796959765625,4.568556953125,12.883059765625,3.810946953125L11.552359765625,3.041026953125C10.940659765625,3.494536953125,9.993209765625,4.044736953125,8.998289765625,4.044736953125C8.377779765625,4.044736953125,7.709809765625,3.833796953125,7.010199765625,3.417196953125C6.799269765625,3.292386953125,6.607659765625,3.162306953125,6.445949765625,3.041026953125L5.118799765625,3.807426953125C5.141649765625,4.007816953124999,5.159229765625,4.238096953125,5.160979765625,4.482426953125C5.171529765625,5.298056953125,5.018599765625,5.981846953125,4.707469765625,6.519736953125C4.180119765625,7.433796953125,3.135979765625,7.994536953125,2.452199765625,8.279306953125001C2.422309765625,8.516606953124999,2.397699765625,8.790826953125,2.397699765625,9.000006953125C2.397699765625,9.209186953125,2.424069765625,9.481646953125,2.452199765625,9.720706953125C3.135979765625,10.005476953125,4.180119765625,10.564456953125,4.707469765625,11.478526953125C5.203169765625,12.339826953125,5.203169765625,13.434926953125,5.117039765625,14.190826953125Z" fill="#86909C" fill-opacity="1"/></g><g><path d="M9.000001875,12.392581875000001C7.129691875,12.392581875000001,5.607421875,10.870311874999999,5.607421875,9.000001875C5.607421875,7.129691875,7.129691875,5.607421875,9.000001875,5.607421875C10.870311874999999,5.607421875,12.392581875000001,7.129691875,12.392581875000001,9.000001875C12.392581875000001,10.870311874999999,10.870311874999999,12.392581875000001,9.000001875,12.392581875000001ZM9.000001875,7.337111875C8.082421875,7.337111875,7.337111875,8.082421875,7.337111875,9.000001875C7.337111875,9.917581875,8.082421875,10.662891875,9.000001875,10.662891875C9.917581875,10.662891875,10.662891875,9.917581875,10.662891875,9.000001875C10.662891875,8.082421875,9.917581875,7.337111875,9.000001875,7.337111875Z" fill="#86909C" fill-opacity="1"/></g></g></svg>