<svg 
xmlns="http://www.w3.org/2000/svg" 
xmlns:xlink="http://www.w3.org/1999/xlink" 
version="1.1" 
width="16" 
height="16" 
viewBox="0 0 16 16" fill=''>
    <defs>
        <clipPath id="master_svg0_136_74590">
            <rect x="0" y="0" width="16" height="16" rx="0"/>
        </clipPath>
    </defs>
    <g clip-path="url(#master_svg0_136_74590)">
        <g>
            <path d="M7.96708,13.3004C5.09886,13.3004,2.76543,10.967,2.76543,8.09877C2.76543,5.23055,5.09886,2.89712,7.96708,2.89712L7.96708,3.88477C5.64346,3.88477,3.75309,5.77514,3.75309,8.09876C3.75309,10.4224,5.64346,12.3128,7.96708,12.3128C10.2907,12.3128,12.1811,10.4224,12.1811,8.09876L13.1687,8.09876C13.1687,10.967,10.8353,13.3004,7.96708,13.3004ZM8,16L8,15.0123C11.8667,15.0123,15.0123,11.8667,15.0123,8C15.0123,4.1334,11.8667,0.987654,8,0.987654C4.1334,0.987654,0.987654,4.1334,0.987654,8L0,8C0,3.58881,3.58881,0,8,0C12.4112,0,16,3.58881,16,8C16,12.4112,12.4112,16,8,16ZM7.59539,10.3457L5.14015,7.89044L5.83849,7.1921L7.59539,8.949L11.7991,4.74528L12.4976,5.44362L7.59539,10.3457Z" />
        </g>
    </g>
</svg>