<svg xmlns="http://www.w3.org/2000/svg" xmlns:xlink="http://www.w3.org/1999/xlink" fill="none" version="1.1" width="20.284893035888672" height="19.787050247192383" viewBox="0 0 20.284893035888672 19.787050247192383"><g transform="matrix(-1,0,0,1,40.569786071777344,0)"><path d="M36.887693035888674,0.146394L40.42319303588867,3.68139C40.61869303588867,3.8767,40.61869303588867,4.19359,40.42319303588867,4.38889L36.888193035888676,7.92439C36.69279303588867,8.11992,36.37599303588867,8.11992,36.18069303588867,7.92439L35.82719303588867,7.57089C35.63199303588867,7.37564,35.63199303588867,7.05914,35.82719303588867,6.86389L37.90419303588867,4.78539L32.78419303588867,4.78539C32.12559303588867,4.78529,31.579893035888674,5.29621,31.53669303588867,5.95339L31.53419303588867,6.03539L31.53419303588867,15.0354C31.534293035888673,16.5113,30.369293035888674,17.7241,28.89464303588867,17.7834L28.784143035888672,17.7854L25.68064303588867,17.7854C25.16313303588867,19.611,22.99587303588867,20.3763,21.446743035888673,19.2804C19.89760903588867,18.1846,19.897610035888672,15.8862,21.446743035888673,14.7903C22.99587303588867,13.6945,25.16313303588867,14.4598,25.68064303588867,16.2854L28.784143035888672,16.2854C29.44274303588867,16.2855,29.98844303588867,15.7746,30.03164303588867,15.1174L30.034143035888672,15.0354L30.034143035888672,6.03539C30.034023035888673,4.55951,31.19899303588867,3.3467,32.673693035888675,3.28739L32.78419303588867,3.28539L37.90519303588867,3.28539L35.82719303588867,1.20689C35.63199303588867,1.01164,35.63199303588867,0.695143,35.82719303588867,0.499893L36.18069303588867,0.146394C36.37589303588867,-0.0487978,36.69239303588867,-0.0487978,36.887693035888674,0.146394ZM23.034143035888672,15.7854C22.34331303588867,15.7847,21.782923035888672,16.3446,21.782923035888672,17.0354C21.782923035888672,17.7262,22.34331303588867,18.2861,23.034143035888672,18.2854C23.72402303588867,18.2847,24.282923035888672,17.7253,24.282923035888672,17.0354C24.282923035888672,16.3455,23.72402303588867,15.7861,23.034143035888672,15.7854Z" fill="#4E5969" fill-opacity="1"/></g></svg>